<?xml version="1.0"?>
<!DOCTYPE svg PUBLIC "-//W3C//DTD SVG 20000802//EN" "http://www.w3.org/TR/2000/CR-SVG-20000802/DTD/svg-20000802.dtd">
<svg width="31cm" height="13cm" viewBox="-9 5 31 13">
  <rect style="fill: #ffffff" x="5.0434" y="7.45" width="5.6632" height="4.25"/>
  <rect style="stroke-width: 0.1; stroke: #000000" x="5.0434" y="7.45" width="5.6632" height="4.25"/>
  <text style="fill: #000000; text-align: center; font-size: 0.8" x="7.875" y="8.99214">Servlet</text>
  <text style="fill: #000000; text-align: center; font-size: 0.8" x="7.875" y="9.79214">Proxy</text>
  <text style="fill: #000000; text-align: center; font-size: 0.8" x="7.875" y="10.5921">Generator</text>
  <rect style="fill: #ffffff" x="17.0716" y="7.45" width="4.89276" height="4.2"/>
  <rect style="stroke-width: 0.1; stroke: #000000" x="17.0716" y="7.45" width="4.89276" height="4.2"/>
  <text style="fill: #000000; text-align: center; font-size: 0.8" x="19.518" y="9.76714">Servlet</text>
  <line style="stroke-width: 0.1; stroke: #000000" x1="10.7066" y1="8.5125" x2="17.0716" y2="8.5"/>
  <polygon style="fill: #ffffff" points="16.2724,8.90157 17.0716,8.5 16.2708,8.10157 "/>
  <polygon style="stroke-width: 0.1; stroke: #000000" points="16.2724,8.90157 17.0716,8.5 16.2708,8.10157 "/>
  <line style="stroke-width: 0.1; stroke: #000000" x1="10.7066" y1="10.6375" x2="17.0716" y2="10.6"/>
  <polygon style="fill: #ffffff" points="11.5042,10.2328 10.7066,10.6375 11.5089,11.0328 "/>
  <polygon style="stroke-width: 0.1; stroke: #000000" points="11.5042,10.2328 10.7066,10.6375 11.5089,11.0328 "/>
  <text style="fill: #000000; text-align: center; font-size: 0.8" x="14.2" y="7.9">Post/Get</text>
  <text style="fill: #000000; text-align: center; font-size: 0.8" x="1.5" y="8.4">Post</text>
  <text style="fill: #000000; text-align: center; font-size: 0.8" x="6.85" y="13.15">XML</text>
  <text style="fill: #000000; text-align: center; font-size: 0.8" x="13.6272" y="10.1171">XML</text>
  <rect style="stroke-width: 0.1; stroke: #000000" x="3.80108" y="5.55" width="8.05" height="12.5"/>
  <text style="fill: #000000; text-align: center; font-size: 0.8" x="7.82608" y="12.0171"/>
  <rect style="fill: #ffffff" x="4.87853" y="14.9464" width="6.10688" height="1.60711"/>
  <rect style="stroke-width: 0.1; stroke: #000000" x="4.87853" y="14.9464" width="6.10688" height="1.60711"/>
  <line style="stroke-width: 0.1; stroke: #000000" x1="5.48922" y1="14.9464" x2="5.48922" y2="16.5536"/>
  <line style="stroke-width: 0.1; stroke: #000000" x1="10.3747" y1="14.9464" x2="10.3747" y2="16.5536"/>
  <text style="fill: #000000; text-align: center; font-size: 0.8" x="7.93198" y="15.9671">Pipeline</text>
  <line style="stroke-width: 0.1; stroke: #000000" x1="7.875" y1="11.7" x2="7.93198" y2="14.9464"/>
  <polygon style="fill: #ffffff" points="7.518,14.1536 7.93198,14.9464 8.31788,14.1396 "/>
  <polygon style="stroke-width: 0.1; stroke: #000000" points="7.518,14.1536 7.93198,14.9464 8.31788,14.1396 "/>
  <path style="stroke-width: 0.1; stroke: #000000" d="M 4.87853 15.75 C -5.29892,15.8323 0.531977,11.8503 -4.06802,11.8003"/>
  <polygon style="fill: #ffffff" points="-3.26372,11.409 -4.06802,11.8003 -3.27242,12.209 "/>
  <polygon style="stroke-width: 0.1; stroke: #000000" points="-3.26372,11.409 -4.06802,11.8003 -3.27242,12.209 "/>
  <path style="stroke-width: 0.1; stroke: #000000" d="M -4.06802 11.1336 C 1.20108,11.2323 0.151081,8.4323 5.0434,8.5125"/>
  <polygon style="fill: #ffffff" points="4.23695,8.89933 5.0434,8.5125 4.25006,8.09944 "/>
  <polygon style="stroke-width: 0.1; stroke: #000000" points="4.23695,8.89933 5.0434,8.5125 4.25006,8.09944 "/>
  <rect style="fill: #b3b3b3" x="-7.60327" y="7.2" width="3.1205" height="2.34037"/>
  <rect style="stroke-width: 0.08; stroke: #000000" x="-7.60327" y="7.2" width="3.1205" height="2.34037"/>
  <rect style="fill: #000000" x="-7.26522" y="7.53805" width="2.44439" height="1.66427"/>
  <polygon style="fill: #b3b3b3" points="-7.18071,9.54037 -5.57495,9.54037 -5.57495,9.90443 -7.09619,9.90443 "/>
  <polygon style="stroke-width: 0.08; stroke: #000000" points="-7.18071,9.54037 -5.57495,9.54037 -5.57495,9.90443 -7.09619,9.90443 "/>
  <polygon style="fill: #b3b3b3" points="-5.57495,9.54037 -4.90534,9.54037 -4.98985,9.90443 -5.57495,9.90443 "/>
  <polygon style="stroke-width: 0.08; stroke: #000000" points="-5.57495,9.54037 -4.90534,9.54037 -4.98985,9.90443 -5.57495,9.90443 "/>
  <rect style="fill: #ffffff" x="-5.46573" y="9.64959" width="0.145623" height="0.145623"/>
  <rect style="stroke-width: 0.025; stroke: #000000" x="-5.46573" y="9.64959" width="0.145623" height="0.145623"/>
  <polygon style="fill: #b3b3b3" points="-6.35507,9.90443 -5.73097,9.90443 -5.73097,10.0865 -5.41892,10.0865 -5.41892,10.2685 -6.66712,10.2685 -6.66712,10.0865 -6.35507,10.0865 "/>
  <polygon style="stroke-width: 0.08; stroke: #000000" points="-6.35507,9.90443 -5.73097,9.90443 -5.73097,10.0865 -5.41892,10.0865 -5.41892,10.2685 -6.66712,10.2685 -6.66712,10.0865 -6.35507,10.0865 "/>
  <text style="fill: #000000; text-align: center; font-size: 0.8" x="-6.06802" y="6.4">CLIENT</text>
  <rect style="fill: #dadace" x="-8.06802" y="10.467" width="4" height="1.33333"/>
  <rect style="stroke-width: 0.1; stroke: #000000" x="-8.06802" y="10.467" width="4" height="1.33333"/>
  <rect style="stroke-width: 0.01; stroke: #000000" x="-8.06802" y="10.467" width="4" height="1.33333"/>
  <rect style="fill: #dadace" x="-5.68707" y="10.8479" width="1.52381" height="0.761905"/>
  <rect style="stroke-width: 0.1; stroke: #000000" x="-5.68707" y="10.8479" width="1.52381" height="0.761905"/>
  <rect style="stroke-width: 0.01; stroke: #000000" x="-5.68707" y="10.8479" width="1.52381" height="0.761905"/>
  <line style="stroke-width: 0.01; stroke: #000000" x1="-4.16326" y1="11.2289" x2="-5.68707" y2="11.2289"/>
  <rect style="fill: #dadace" x="-6.06802" y="10.5622" width="0.285714" height="1.04762"/>
  <rect style="stroke-width: 0.1; stroke: #000000" x="-6.06802" y="10.5622" width="0.285714" height="1.04762"/>
  <rect style="stroke-width: 0.01; stroke: #000000" x="-6.06802" y="10.5622" width="0.285714" height="1.04762"/>
  <rect style="fill: #00ce00" x="-7.11564" y="10.6574" width="0.0952381" height="0.0952381"/>
  <rect style="stroke-width: 0.1; stroke: #000000" x="-7.11564" y="10.6574" width="0.0952381" height="0.0952381"/>
  <rect style="stroke-width: 0.01; stroke: #000000" x="-7.11564" y="10.6574" width="0.0952381" height="0.0952381"/>
  <rect style="fill: #cece00" x="-6.92517" y="10.6574" width="0.0952381" height="0.0952381"/>
  <rect style="stroke-width: 0.1; stroke: #000000" x="-6.92517" y="10.6574" width="0.0952381" height="0.0952381"/>
  <rect style="stroke-width: 0.01; stroke: #000000" x="-6.92517" y="10.6574" width="0.0952381" height="0.0952381"/>
  <rect style="fill: #ce0000" x="-6.73469" y="10.6574" width="0.0952381" height="0.0952381"/>
  <rect style="stroke-width: 0.1; stroke: #000000" x="-6.73469" y="10.6574" width="0.0952381" height="0.0952381"/>
  <rect style="stroke-width: 0.01; stroke: #000000" x="-6.73469" y="10.6574" width="0.0952381" height="0.0952381"/>
  <rect style="fill: #cecebe" x="-6.44898" y="10.5622" width="0.190476" height="0.190476"/>
  <rect style="stroke-width: 0.1; stroke: #000000" x="-6.44898" y="10.5622" width="0.190476" height="0.190476"/>
  <rect style="stroke-width: 0.01; stroke: #000000" x="-6.44898" y="10.5622" width="0.190476" height="0.190476"/>
  <rect style="fill: #cecebe" x="-7.87755" y="10.5622" width="0.285714" height="0.285714"/>
  <rect style="stroke-width: 0.1; stroke: #000000" x="-7.87755" y="10.5622" width="0.285714" height="0.285714"/>
  <rect style="stroke-width: 0.01; stroke: #000000" x="-7.87755" y="10.5622" width="0.285714" height="0.285714"/>
  <rect style="fill: #cecec2" x="-5.59183" y="11.3241" width="1.33333" height="0.0952381"/>
  <rect style="stroke-width: 0.1; stroke: #000000" x="-5.59183" y="11.3241" width="1.33333" height="0.0952381"/>
  <rect style="stroke-width: 0.01; stroke: #000000" x="-5.59183" y="11.3241" width="1.33333" height="0.0952381"/>
  <line style="stroke-width: 0.01; stroke: #000000" x1="-5.97279" y1="10.6574" x2="-5.97279" y2="11.5146"/>
  <rect style="fill: #cecec2" x="-5.97279" y="10.8479" width="0.0952381" height="0.47619"/>
  <rect style="stroke-width: 0.1; stroke: #000000" x="-5.97279" y="10.8479" width="0.0952381" height="0.47619"/>
  <rect style="stroke-width: 0.01; stroke: #000000" x="-5.97279" y="10.8479" width="0.0952381" height="0.47619"/>
  <line style="stroke-width: 0.01; stroke: #000000" x1="-4.44898" y1="11.5146" x2="-4.2585" y2="11.5146"/>
  <line style="stroke-width: 0.01; stroke: #000000" x1="-7.97279" y1="11.1336" x2="-6.2585" y2="11.1336"/>
  <line style="stroke-width: 0.01; stroke: #000000" x1="-6.2585" y1="11.2289" x2="-7.97279" y2="11.2289"/>
  <line style="stroke-width: 0.01; stroke: #000000" x1="-7.97279" y1="11.3241" x2="-6.2585" y2="11.3241"/>
  <line style="stroke-width: 0.01; stroke: #000000" x1="-6.2585" y1="11.6098" x2="-7.97279" y2="11.6098"/>
  <line style="stroke-width: 0.01; stroke: #000000" x1="-7.97279" y1="11.5146" x2="-6.2585" y2="11.5146"/>
  <line style="stroke-width: 0.01; stroke: #000000" x1="-6.2585" y1="11.4193" x2="-7.97279" y2="11.4193"/>
  <line style="stroke-width: 0.01; stroke: #000000" x1="-5.59183" y1="11.5146" x2="-5.49659" y2="11.5146"/>
  <line style="stroke-width: 0.01; stroke: #000000" x1="-5.40136" y1="11.5146" x2="-5.30612" y2="11.5146"/>
  <line style="stroke-width: 0.01; stroke: #000000" x1="-5.87755" y1="11.5146" x2="-5.87755" y2="11.4193"/>
  <line style="stroke-width: 0.01; stroke: #000000" x1="-5.87755" y1="10.7527" x2="-5.87755" y2="10.6574"/>
  <text style="fill: #000000; text-align: center; font-size: 0.8" x="0.651081" y="16.5823">HTML/PDF/RTF</text>
  <text style="fill: #000000; text-align: center; font-size: 0.8" x="7.65108" y="6.6323">Cocoon</text>
</svg>
