<?xml version="1.0" encoding="UTF-8"?>
<!DOCTYPE svg PUBLIC "-//W3C//DTD SVG 1.0//EN" "http://www.w3.org/TR/2001/PR-SVG-20010719/DTD/svg10.dtd">
<svg width="29cm" height="16cm" viewBox="1 2 29 16">
  <rect style="fill: #ffffff" x="3.034" y="6.8" width="8.932" height="1.9"/>
  <rect style="fill: none; stroke-width: 0.1; stroke: #000000" x="3.034" y="6.8" width="8.932" height="1.9"/>
  <text style="fill: #000000; text-anchor: middle; font-size: 0.8" x="7.5" y="7.96714">URIParametrizer</text>
  <rect style="fill: #ffffff" x="3.0428" y="11.9164" width="8.9144" height="1.9"/>
  <rect style="fill: none; stroke-width: 0.1; stroke: #000000" x="3.0428" y="11.9164" width="8.9144" height="1.9"/>
  <text style="fill: #000000; text-anchor: middle; font-size: 0.8" x="7.5" y="13.0836">Classic Sitemap</text>
  <line style="fill: none; stroke-width: 0.1; stroke: #000000" x1="7.5" y1="8.7" x2="7.5" y2="11.9164"/>
  <polygon style="fill: #000000" points="7.1,11.1164 7.5,11.9164 7.9,11.1164 "/>
  <line style="fill: none; stroke-width: 0.1; stroke: #000000" x1="7.5" y1="4.55" x2="7.5" y2="6.8"/>
  <polygon style="fill: #000000" points="7.1,6 7.5,6.8 7.9,6 "/>
  <text style="fill: #000000; text-anchor: middle; font-size: 0.8" x="7.5" y="3.35">Request URI</text>
  <text style="fill: #000000; text-anchor: middle; font-size: 0.8" x="7.5" y="4.15">http://foo/bar/baz.html</text>
  <text style="fill: #000000; text-anchor: middle; font-size: 0.8" x="7.3" y="10.5">cocoon:/p1/p2/p3/p4.xml</text>
  <line style="fill: none; stroke-width: 0.1; stroke: #000000" x1="7.5" y1="13.8164" x2="7.50246" y2="16.8329"/>
  <polygon style="fill: #000000" points="7.10181,16.0332 7.50246,16.8329 7.90181,16.0325 "/>
  <text style="fill: #000000; text-anchor: middle; font-size: 0.8" x="7.4" y="17.65">Response</text>
  <rect style="fill: #ffffff" x="19.7628" y="5.6" width="10.0144" height="6.7"/>
  <rect style="fill: none; stroke-width: 0.1; stroke: #000000" x="19.7628" y="5.6" width="10.0144" height="6.7"/>
  <text style="fill: #000000; text-anchor: middle; font-size: 0.8" x="24.77" y="6.76714">ParameterSitemap</text>
  <text style="fill: #000000; text-anchor: middle; font-size: 0.8" x="24.77" y="7.56714"/>
  <text style="fill: #000000; text-anchor: middle; font-size: 0.8" x="24.77" y="8.36714">map:match</text>
  <text style="fill: #000000; text-anchor: middle; font-size: 0.8" x="24.77" y="9.16714"/>
  <text style="fill: #000000; text-anchor: middle; font-size: 0.8" x="24.77" y="9.96714">map:match</text>
  <text style="fill: #000000; text-anchor: middle; font-size: 0.8" x="24.77" y="10.7671"/>
  <text style="fill: #000000; text-anchor: middle; font-size: 0.8" x="24.77" y="11.5671">map:match hashmap</text>
  <line style="fill: none; stroke-width: 0.1; stroke: #000000" x1="11.966" y1="7.275" x2="19.7628" y2="7.275"/>
  <polygon style="fill: #000000" points="18.9628,7.675 19.7628,7.275 18.9628,6.875 "/>
  <line style="fill: none; stroke-width: 0.1; stroke: #000000" x1="19.7628" y1="10.625" x2="11.966" y2="8.225"/>
  <polygon style="fill: #000000" points="12.8483,8.07806 11.966,8.225 12.6129,8.84265 "/>
  <text style="fill: #000000; text-anchor: middle; font-size: 0.8" x="15.45" y="6.65">URI</text>
  <text style="fill: #000000; text-anchor: middle; font-size: 0.8" x="16.75" y="9.1">p1</text>
  <rect style="fill: #ffffff" x="19.7628" y="16.0329" width="9.46" height="1.9"/>
  <rect style="fill: none; stroke-width: 0.1; stroke: #000000" x="19.7628" y="16.0329" width="9.46" height="1.9"/>
  <text style="fill: #000000; text-anchor: middle; font-size: 0.8" x="24.4928" y="17.2">ParameterSitemap</text>
  <rect style="fill: #ffffff" x="19.7628" y="13.2164" width="9.46" height="1.9"/>
  <rect style="fill: none; stroke-width: 0.1; stroke: #000000" x="19.7628" y="13.2164" width="9.46" height="1.9"/>
  <text style="fill: #000000; text-anchor: middle; font-size: 0.8" x="24.4928" y="14.3836">ParameterSitemap</text>
</svg>
