<?xml version="1.0" standalone="no"?>
<!DOCTYPE svg PUBLIC "-//W3C//DTD SVG 20010904//EN"
 "http://www.w3.org/TR/2001/REC-SVG-20010904/DTD/svg10.dtd">
<svg version="1.0" xmlns="http://www.w3.org/2000/svg"
 width="468pt" height="122pt" viewBox="0 0 468 122"
 preserveAspectRatio="xMidYMid meet">
<metadata>
Created by potrace 1.7, written by Peter Selinger 2001-2005
</metadata>
<g transform="translate(0,122) scale(0.001418,-0.001418)"
fill="#000000" stroke="none">
<path d="M318782 83849 c-587 -71 -1667 -267 -2400 -436 -732 -168 -1778 -376
-2323 -461 l-991 -155 -770 -348 -771 -348 -938 -197 -939 -197 -927 -403
c-509 -222 -962 -404 -1007 -404 -44 0 -257 -149 -473 -331 -216 -181 -550
-438 -743 -570 -192 -131 -692 -545 -1109 -919 l-759 -680 -193 0 -194 0 -195
362 c-107 200 -286 423 -398 496 l-203 133 -1186 -300 c-653 -165 -1440 -427
-1750 -581 -310 -155 -878 -381 -1263 -503 -385 -122 -894 -335 -1132 -473
-238 -138 -750 -359 -1139 -491 -389 -132 -859 -356 -1044 -497 -185 -142
-595 -346 -911 -454 -316 -108 -823 -350 -1128 -538 -305 -187 -793 -435
-1085 -550 -292 -115 -675 -319 -851 -453 -176 -135 -588 -363 -915 -507 -587
-260 -1309 -667 -2306 -1302 -281 -179 -830 -486 -1220 -682 -390 -197 -858
-486 -1039 -643 -446 -386 -2699 -1863 -3835 -2515 l-305 -174 -535 -789
c-294 -434 -653 -1081 -797 -1439 l-261 -650 -366 -197 -365 -196 -597 123
-597 123 -254 -96 c-140 -53 -499 -290 -799 -527 -1254 -990 -1874 -1506
-1944 -1617 -41 -65 -367 -349 -725 -632 -664 -525 -2853 -2733 -3521 -3551
-204 -250 -472 -629 -596 -842 -124 -213 -350 -561 -501 -774 -152 -212 -363
-617 -469 -900 -107 -282 -351 -774 -543 -1091 l-349 -577 -177 -720 c-97
-395 -299 -991 -450 -1323 l-273 -603 -270 -1450 c-148 -797 -354 -1652 -458
-1900 -314 -751 -394 -1278 -458 -3000 l-60 -1650 116 -425 117 -425 238 0
238 0 351 410 c193 225 477 659 631 963 l280 554 375 236 c413 261 631 546
732 958 l67 272 194 61 c237 76 1165 1027 1245 1276 l58 180 -116 138 c-144
174 -634 287 -890 206 -226 -72 -281 -188 -498 -1051 l-163 -646 -350 -94
c-192 -52 -488 -196 -657 -320 l-308 -226 -135 83 -136 84 -171 844 -170 845
51 268 51 268 353 269 353 269 377 821 378 822 482 230 482 230 144 300 c79
165 163 570 187 900 46 649 145 850 420 850 l176 0 154 -235 c84 -129 293
-292 464 -363 l310 -128 198 178 197 179 0 369 0 369 -175 158 c-96 86 -300
189 -453 227 -332 83 -472 313 -472 774 l0 342 290 400 c288 398 977 1009
1361 1208 l202 104 420 -77 420 -77 229 114 228 114 450 913 c248 502 518
1064 600 1247 l150 334 266 126 266 126 254 -97 254 -96 155 -300 155 -299 0
-648 0 -647 266 -210 c147 -115 379 -237 516 -272 l249 -62 159 100 c88 55
242 240 343 412 l182 311 85 910 86 909 192 369 c558 1067 855 1515 1226 1848
l409 367 -68 454 -68 453 366 345 365 345 407 122 407 122 480 -269 479 -270
158 60 c86 34 252 215 368 402 116 188 409 478 651 644 530 365 642 556 642
1091 l0 408 387 423 c212 233 461 569 552 748 l166 325 611 0 c336 0 777 -50
981 -111 l371 -111 291 163 c160 89 557 330 881 536 l591 373 202 683 202 683
272 292 273 292 240 0 c132 0 294 -54 360 -120 l120 -120 0 -578 0 -577 225
-146 c124 -80 344 -175 490 -211 146 -35 362 -155 481 -265 l215 -201 -30
-166 -31 -166 -517 -252 c-284 -139 -615 -342 -736 -450 -271 -246 -597 -871
-597 -1147 l0 -207 146 -56 c216 -83 856 153 1254 463 193 150 530 364 750
475 220 112 484 296 587 409 102 114 413 282 691 374 l504 168 459 471 459
471 405 63 404 64 218 294 217 294 553 161 553 161 0 290 c0 408 -134 715
-544 1253 l-356 466 0 240 0 240 246 162 247 161 593 54 592 54 62 -194 62
-195 -147 -488 -147 -488 108 -130 c60 -72 220 -131 357 -131 l248 0 303 255
303 255 511 -30 512 -30 0 -150 0 -150 -573 -273 -573 -273 -141 -338 -141
-339 -326 -113 c-179 -63 -423 -114 -542 -114 -119 0 -299 -60 -400 -134
l-183 -135 68 -273 68 -272 498 -207 498 -207 62 -245 c33 -135 36 -500 5
-811 l-56 -566 -357 -846 c-196 -466 -357 -858 -357 -873 0 -14 -144 -100
-320 -191 l-319 -165 -856 62 c-975 71 -1996 221 -2081 306 -101 101 55 179
539 269 259 49 555 164 657 256 205 186 1380 2397 1380 2598 0 70 -92 176
-204 236 l-204 109 -171 -59 c-94 -32 -261 -199 -371 -372 l-200 -313 -541
-175 c-298 -96 -579 -242 -625 -325 -47 -83 -311 -317 -588 -520 l-503 -369
-197 -385 -196 -385 -401 -120 c-410 -123 -561 -248 -746 -620 l-105 -210
-337 -69 c-185 -38 -454 -164 -599 -280 -144 -115 -495 -389 -781 -608 l-518
-398 -357 -537 c-196 -295 -356 -589 -356 -653 0 -64 159 -192 353 -285 l353
-168 59 -236 c33 -130 37 -436 10 -680 l-50 -444 -365 -529 c-201 -291 -413
-703 -471 -915 l-106 -385 193 -260 194 -261 316 -31 315 -32 1244 419 c1320
445 1490 535 2355 1246 949 780 2944 2309 4000 3064 491 352 1296 1006 1666
1355 352 331 1729 1358 2184 1628 220 130 566 384 769 563 203 180 518 403
700 497 435 224 1424 970 1952 1473 425 406 830 665 2056 1314 373 197 889
520 1147 717 258 197 569 396 690 442 272 104 1742 1068 2284 1499 218 173
601 425 850 559 469 252 1549 965 2027 1338 151 118 579 384 950 592 909 508
1755 1013 2457 1466 320 206 793 479 1050 606 257 127 679 378 937 558 618
431 1490 942 2226 1304 327 162 736 401 909 532 172 132 607 409 967 615 360
207 889 511 1177 676 287 165 920 560 1406 878 l885 578 61 193 61 193 -109
204 c-238 444 -1354 823 -3102 1052 l-1150 150 -1800 -10 -1800 -10 -1068
-129z m-4101 -3215 l31 -216 -231 -161 c-127 -89 -466 -318 -754 -509 l-522
-348 -247 0 c-135 0 -268 36 -295 79 -54 88 970 1128 1287 1307 110 62 313
102 450 88 l250 -24 31 -216z m4608 -971 l113 -136 -136 -114 c-75 -62 -339
-140 -586 -174 l-450 -62 -218 116 -218 117 58 93 c76 123 616 277 1011 288
l313 9 113 -137z m-7435 -3804 l193 -141 -10 -399 -11 -399 -188 -385 -188
-385 -435 -238 -434 -238 -1201 -287 c-660 -158 -1384 -287 -1608 -287 l-406
0 -183 165 c-226 205 -232 372 -19 584 l163 164 871 -68 c479 -38 963 -39
1076 -3 l204 65 132 321 132 322 694 675 694 675 166 0 c91 0 252 -63 358
-141z m-11372 -891 l33 -281 -162 -247 -162 -246 -95 59 c-108 66 -129 644
-33 894 l62 163 163 -31 162 -31 32 -280z m5203 -2353 l186 -186 72 -1075 72
-1075 -233 -249 c-311 -334 -810 -580 -1588 -783 l-644 -168 -750 47 c-700 43
-1300 216 -1300 375 0 38 168 352 374 699 l374 630 630 282 c346 156 797 418
1001 584 617 501 1461 1104 1543 1104 43 0 161 -83 263 -185z m-10714 -2178
c50 -151 -199 -237 -476 -165 l-225 59 188 137 c211 154 456 140 513 -31z
m-8075 -782 c204 -246 78 -459 -519 -879 l-573 -404 -151 125 -151 125 199
280 c110 153 199 314 199 357 0 43 98 182 217 310 l218 231 220 0 c121 0 275
-65 341 -145z m-7094 -4812 c206 -540 63 -1343 -239 -1343 -175 0 -363 432
-363 832 l0 323 156 223 c203 290 327 281 446 -35z m14196 29 c136 -69 349
-305 473 -524 l226 -398 1 -379 2 -378 -157 -240 c-203 -310 -595 -563 -1020
-659 l-339 -77 -665 95 c-366 51 -703 132 -750 179 l-86 86 356 486 c195 268
446 606 557 752 111 146 291 472 400 725 l197 460 278 -1 c154 -1 391 -58 527
-127z"/>
<path d="M290150 65760 c-399 -176 -634 -454 -711 -842 l-64 -318 90 0 c50 0
179 59 288 132 108 72 411 211 672 308 l475 177 60 236 c113 451 -207 573
-810 307z"/>
<path d="M287357 64207 c-168 -185 -350 -766 -355 -1132 l-2 -175 328 0 327 0
248 170 c344 238 490 444 494 698 l3 217 -263 208 c-329 258 -556 262 -780 14z"/>
<path d="M286250 62728 c-271 -66 -519 -298 -584 -547 l-54 -205 367 59 c419
68 856 359 903 601 l33 164 -233 -12 c-127 -6 -322 -33 -432 -60z"/>
<path d="M287061 60556 c-181 -199 -528 -489 -770 -646 -243 -156 -778 -596
-1191 -977 -412 -381 -896 -795 -1075 -920 -179 -125 -372 -314 -429 -420
l-103 -193 106 -198 106 -198 522 -147 c288 -81 976 -177 1530 -213 l1008 -67
317 164 318 164 0 292 0 291 -500 422 -500 421 0 191 c0 199 378 719 1030
1414 l379 405 -29 254 -30 253 -179 34 -179 34 -331 -360z"/>
<path d="M281548 59297 c-35 -57 -101 -234 -147 -393 l-83 -290 132 -181 132
-180 206 187 c114 102 233 269 265 369 l58 183 -109 204 c-117 218 -349 270
-454 101z"/>
<path d="M287856 56870 l-194 -145 132 -552 133 -552 -64 -236 -64 -235 -324
-202 -324 -201 -189 -527 c-104 -289 -168 -547 -142 -573 66 -66 693 171 937
353 111 83 305 297 431 478 l230 328 478 242 c263 133 596 383 741 555 l263
312 0 327 0 327 -209 189 -209 189 -716 34 -716 34 -194 -145z"/>
<path d="M275366 53952 l-166 -166 0 -596 0 -596 158 -61 157 -60 493 485
c270 266 492 535 492 598 0 181 -338 437 -665 502 l-302 60 -167 -166z"/>
<path d="M262400 53610 c-357 -99 -1168 -324 -1800 -501 l-1150 -321 -450
-287 c-247 -158 -697 -384 -1000 -502 -302 -119 -730 -359 -950 -535 -220
-176 -599 -447 -841 -604 -575 -370 -2704 -2501 -3067 -3069 -155 -242 -429
-627 -609 -854 -179 -227 -421 -654 -537 -950 -116 -295 -341 -763 -498 -1040
l-287 -502 -267 -998 c-147 -548 -375 -1396 -506 -1883 l-238 -886 0 -2142 0
-2142 298 -904 c164 -497 387 -1278 495 -1736 l198 -833 519 -985 c285 -542
757 -1346 1049 -1786 l530 -800 1136 -1150 c625 -632 1357 -1329 1627 -1548
759 -615 2114 -1434 2893 -1748 388 -157 982 -402 1320 -544 l614 -260 1636
-300 1635 -300 1203 0 1202 0 1448 252 c1578 275 2409 487 2736 698 116 75
561 274 988 443 428 169 1001 453 1274 632 273 179 756 490 1073 693 1774
1132 4234 4024 4930 5794 116 296 345 772 509 1059 l297 521 352 1779 352
1779 -38 1800 -38 1800 -222 674 c-123 370 -331 798 -464 950 l-240 276 -281
-151 -281 -152 -192 -392 -193 -393 118 -811 c64 -446 117 -1386 117 -2088 l0
-1277 -454 -1768 -454 -1768 -608 -1200 c-335 -660 -709 -1312 -832 -1450
-122 -137 -359 -453 -526 -702 -391 -582 -1842 -2033 -2424 -2424 -249 -167
-564 -404 -702 -527 -137 -123 -752 -478 -1367 -789 l-1116 -564 -1684 -472
-1683 -472 -1600 2 -1600 2 -1747 477 -1746 476 -454 289 c-249 158 -706 399
-1015 535 -309 136 -593 297 -631 358 -38 62 -345 299 -681 527 -336 229 -999
802 -1472 1275 -771 768 -1040 1094 -1754 2117 -604 865 -1091 1773 -1347
2511 -158 457 -378 1058 -487 1336 -294 742 -416 1848 -416 3757 l0 1699 162
719 c90 396 242 878 340 1070 97 193 295 740 440 1216 146 476 366 1016 490
1200 125 184 368 582 542 884 704 1227 3099 3622 4326 4326 303 174 704 420
892 547 188 127 593 304 900 392 307 88 764 264 1015 390 252 127 747 307
1100 401 l643 170 1457 67 1457 67 340 199 341 199 93 323 92 323 -110 242
-110 242 -380 105 -380 106 -1300 -5 -1300 -6 -650 -178z"/>
<path d="M284813 52728 l-237 -45 -436 -448 -436 -449 -209 -701 -209 -702
-305 -167 c-478 -260 -875 -614 -1035 -924 l-147 -284 -475 -274 c-582 -337
-621 -390 -622 -859 l-2 -375 -196 -196 c-108 -108 -366 -283 -575 -389 -499
-255 -698 -489 -777 -916 l-65 -351 104 -274 104 -274 269 0 c148 0 452 108
677 240 411 242 1364 1251 1710 1810 102 165 296 421 431 570 423 465 1219
1614 1385 2001 l160 370 387 256 387 257 534 723 c654 886 796 1147 726 1331
l-55 142 -428 -14 c-235 -7 -535 -33 -665 -58z"/>
<path d="M274354 51607 c-68 -111 90 -230 182 -138 95 95 77 231 -30 231 -52
0 -120 -42 -152 -93z"/>
<path d="M276400 50292 l0 -209 125 42 c69 23 140 117 157 208 l33 167 -158 0
-157 0 0 -208z"/>
<path d="M272345 45855 c-418 -419 -253 -754 304 -614 l248 62 63 250 62 250
-123 148 c-170 205 -269 188 -554 -96z"/>
<path d="M275656 45695 l-494 -84 -405 -285 c-223 -156 -460 -394 -527 -529
l-122 -245 131 -201 132 -201 540 -222 539 -222 430 -3 430 -3 320 340 c176
187 466 413 645 502 l325 163 -2 273 c0 149 -34 322 -75 382 -209 313 -1076
469 -1867 335z"/>
<path d="M271243 44389 c-106 -118 -355 -318 -554 -444 l-360 -229 -466 -653
c-256 -359 -493 -790 -527 -956 l-60 -304 150 -58 c175 -67 1090 184 1759 483
l465 208 600 -18 c956 -28 1144 245 328 475 -236 66 -513 184 -618 261 l-190
140 -60 620 -60 620 -107 35 c-59 20 -194 -61 -300 -180z"/>
<path d="M88433 40054 c-175 -76 -377 -243 -450 -371 l-133 -233 -50 -5410
-50 -5410 -141 -169 c-78 -94 -197 -149 -264 -123 -228 88 -1361 987 -1413
1122 -28 73 -387 400 -799 728 l-749 596 -1117 554 -1117 553 -1815 305 -1816
304 -920 0 -920 0 -565 -142 c-310 -79 -1081 -216 -1714 -305 l-1150 -163
-650 -307 c-357 -169 -897 -407 -1200 -529 -1347 -545 -3470 -2485 -4350
-3976 -165 -280 -375 -555 -467 -612 l-166 -104 -153 126 c-84 70 -228 352
-319 628 -92 275 -405 1003 -696 1617 l-531 1117 -484 468 c-437 423 -1143
885 -2143 1402 l-359 185 -1591 303 -1591 303 -1850 -39 -1850 -39 -1400 -269
-1400 -269 -500 -255 c-275 -140 -795 -406 -1157 -590 l-656 -335 -744 -694
-743 -695 -391 -688 c-698 -1229 -755 -1378 -1003 -2641 l-245 -1247 240 -243
240 -244 602 -43 c330 -24 812 -12 1070 27 l470 70 275 276 276 275 108 416
c59 229 153 591 209 804 l100 388 490 671 490 672 662 483 663 483 1422 476
1422 476 1150 41 1150 40 702 -149 c386 -82 1082 -295 1548 -475 l846 -326
511 -483 511 -483 414 -695 c228 -382 460 -899 516 -1148 l101 -452 -112 -522
-111 -522 -498 -484 c-820 -799 -1361 -985 -3278 -1130 -467 -36 -1233 -150
-1700 -254 -1413 -313 -3085 -585 -4296 -697 l-1146 -106 -654 -237 c-1629
-591 -2281 -875 -2757 -1203 l-512 -352 -265 0 -265 0 -153 233 c-84 128 -199
499 -256 825 -58 325 -176 925 -263 1331 l-159 739 65 787 66 786 -163 324
c-90 179 -355 573 -589 875 -234 302 -548 793 -698 1090 -328 647 -1290 1923
-1822 2414 -759 702 -1602 1276 -2683 1824 l-1100 559 -1830 307 c-1885 315
-2776 369 -3470 209 -220 -51 -1006 -185 -1747 -299 l-1348 -206 -1152 -573
c-1097 -544 -2354 -1359 -2908 -1883 -307 -291 -507 -305 -733 -55 l-170 187
-82 971 -82 971 -217 217 -217 217 -994 0 -994 0 -228 -228 -228 -227 -50
-9323 -50 -9322 -129 -225 -128 -225 -245 0 -245 0 -256 387 c-141 213 -355
629 -476 925 l-219 538 -56 6750 -57 6750 -169 509 -168 508 -602 809 c-643
863 -971 1158 -2000 1800 -704 439 -892 501 -2550 844 l-1100 228 -1900 31
-1900 30 -650 -152 c-357 -83 -1077 -222 -1600 -307 l-950 -155 -1100 -562
c-1309 -668 -2137 -1300 -2780 -2118 l-472 -601 -463 -1132 -462 -1132 -11
-654 -12 -655 183 -279 183 -279 339 -141 339 -142 508 0 508 0 302 156 302
156 280 619 c154 341 464 1006 690 1478 l411 860 727 601 c923 762 1056 826
2628 1279 l1300 375 1257 49 1257 50 1093 -375 c601 -207 1296 -478 1543 -603
l450 -228 622 -712 622 -712 153 -515 153 -514 -8 -607 c-4 -334 -63 -764
-132 -957 l-125 -350 -632 -475 -633 -475 -376 -102 c-207 -55 -819 -144
-1360 -198 -1219 -119 -2618 -342 -3734 -594 -467 -106 -1300 -243 -1850 -304
-2720 -302 -2452 -242 -4221 -951 l-920 -369 -746 -637 c-949 -810 -1170
-1105 -1689 -2257 l-423 -938 -1 -1500 0 -1500 444 -1042 445 -1041 655 -752
656 -751 893 -579 892 -579 708 -145 c2126 -435 2593 -507 3507 -538 l1000
-35 1850 309 1850 310 1050 515 c578 284 1303 709 1613 944 l563 428 466 125
466 125 171 -107 c94 -58 272 -259 396 -446 343 -517 655 -808 1263 -1176
l554 -335 924 -138 924 -138 205 -204 205 -205 50 -3495 50 -3495 228 -227
228 -228 994 0 994 0 228 228 228 227 50 4677 50 4677 177 271 c98 148 237
270 310 270 155 0 827 -470 1452 -1016 242 -211 486 -384 544 -384 58 0 412
-182 787 -405 l681 -405 1325 -344 1324 -344 1982 -1 1982 -1 1418 306 1418
306 1100 557 c1591 806 2556 1627 4007 3406 415 509 812 925 883 925 202 0
426 -305 641 -872 109 -288 389 -828 622 -1200 l424 -678 611 -580 c337 -319
743 -650 902 -735 160 -86 463 -281 673 -433 446 -323 761 -411 2697 -750
l1435 -252 953 0 c524 0 1111 46 1303 103 192 57 934 192 1649 301 l1300 199
1200 592 1200 592 595 506 c328 279 676 532 774 563 l179 57 189 -133 c104
-73 424 -410 711 -750 561 -663 1017 -1020 1652 -1293 l400 -172 1250 -7 1250
-8 321 176 322 175 107 425 c59 233 149 524 200 646 l93 222 255 64 255 64
523 -346 c288 -190 902 -560 1365 -821 l840 -476 1510 -339 c830 -186 1717
-339 1970 -339 254 -1 704 -49 1000 -107 l539 -105 950 112 c1079 128 2861
444 3750 667 l600 150 1013 551 1013 552 808 782 c445 430 1061 949 1369 1154
l561 372 168 -168 168 -168 53 -1322 52 -1321 124 -221 124 -222 383 -115 384
-115 813 37 813 37 227 227 227 227 58 6973 57 6972 118 424 c65 233 331 930
592 1548 l475 1124 625 664 c343 365 952 885 1353 1156 l728 492 1247 442
1247 443 1150 4 1150 3 1390 -494 1389 -494 594 -549 593 -550 430 -856 c606
-1208 762 -1716 878 -2857 l101 -1000 62 -6650 63 -6650 81 -161 c121 -245
552 -407 1230 -463 l610 -51 365 120 366 121 124 217 124 217 58 2150 c57
2134 105 2500 330 2500 133 0 1276 -1119 1532 -1500 646 -958 2221 -2304 3323
-2838 251 -122 660 -340 907 -485 l450 -263 1486 -357 1487 -357 2277 0 2277
0 1487 357 1486 357 450 263 c247 144 697 385 1000 534 1452 715 3204 2667
4120 4589 l215 450 45 524 45 524 -170 259 c-94 143 -323 323 -510 401 l-339
142 -608 0 -608 0 -295 -152 -295 -153 -356 -722 c-197 -398 -437 -813 -534
-923 -98 -110 -274 -361 -391 -557 -232 -389 -1088 -1220 -1883 -1828 l-503
-385 -1041 -397 -1042 -398 -1042 -193 c-1268 -234 -1659 -238 -2896 -31
l-962 161 -650 274 c-357 150 -855 348 -1105 439 -250 92 -878 470 -1396 841
l-940 674 -332 450 c-183 248 -474 626 -648 840 l-316 391 -495 1209 -495
1210 -11 622 -12 623 277 277 277 278 9523 50 9523 50 333 182 333 181 153
367 153 367 -49 1251 -50 1252 -450 1522 -451 1522 -456 778 c-693 1183 -922
1463 -2155 2636 l-1138 1085 -1222 611 -1222 611 -1389 254 -1390 254 -1150
46 -1150 47 -1810 -307 c-1947 -330 -2071 -366 -3603 -1041 l-1012 -446 -802
-562 c-842 -590 -1871 -1616 -2312 -2305 -144 -225 -383 -568 -533 -762 -150
-195 -363 -559 -474 -810 -111 -251 -271 -514 -355 -584 l-153 -127 -196 178
c-108 97 -290 430 -406 739 -115 308 -292 696 -393 861 -101 165 -307 609
-458 988 l-274 687 -874 913 -873 912 -786 473 -786 473 -650 147 c-357 81
-1096 244 -1642 363 l-992 216 -1308 -47 -1308 -47 -1386 -312 -1385 -312
-746 -427 c-411 -235 -1097 -708 -1526 -1052 -429 -344 -853 -625 -941 -625
l-161 0 -178 270 -177 271 -50 4654 -50 4655 -123 214 c-169 295 -634 437
-1417 432 l-660 -4 -317 -138z m-51483 -10647 c825 -216 1627 -441 1783 -500
505 -193 1935 -1255 2439 -1813 l492 -544 612 -1157 613 -1156 213 -1194 c118
-656 263 -1585 323 -2065 l109 -872 -106 -528 c-59 -290 -205 -1023 -325
-1628 l-218 -1100 -550 -1029 -550 -1028 -633 -714 c-763 -859 -1963 -1835
-2448 -1992 -195 -62 -761 -286 -1258 -497 l-905 -383 -945 -107 -945 -108
-951 113 c-982 117 -1381 235 -2763 822 l-813 345 -687 553 c-808 649 -1043
895 -1727 1807 l-512 681 -437 1169 -437 1168 -162 943 c-190 1105 -201 1759
-54 3086 l107 971 238 600 c131 330 366 960 523 1400 l285 800 394 544 c217
299 643 811 945 1137 l550 593 850 563 850 563 1800 467 1800 467 500 7 500 8
1500 -392z m43300 -125 l1400 -444 800 -609 c440 -335 897 -715 1015 -844 405
-442 1324 -1898 1493 -2367 l168 -468 280 -267 279 -267 582 -64 c321 -35 740
-119 932 -187 l349 -122 127 -247 127 -246 -26 -2518 -26 -2518 -210 -282
-209 -282 -487 -122 c-267 -68 -668 -253 -890 -412 l-404 -290 -450 -860
c-247 -473 -688 -1215 -980 -1650 l-529 -790 -820 -663 -820 -664 -351 -112
c-192 -62 -744 -264 -1225 -450 l-874 -338 -944 -98 -943 -98 -1082 150 -1082
149 -750 291 c-412 160 -977 363 -1254 450 l-504 159 -696 550 c-383 302
-1011 904 -1396 1337 l-700 787 -525 1037 -525 1037 -164 998 -163 998 60
1752 60 1752 145 707 145 706 527 994 c821 1550 1673 2527 2755 3164 212 125
591 365 842 534 l458 308 992 285 c546 156 1353 365 1793 464 l800 179 750
-33 750 -32 1400 -444z m42950 -45 l1350 -496 629 -481 c852 -651 1505 -1359
2160 -2344 l549 -825 177 -571 176 -570 4 -573 5 -572 -277 -278 -277 -277
-7656 -27 -7655 -27 -392 106 -392 105 -161 313 -162 313 50 371 c27 204 218
748 424 1209 l375 837 535 700 c636 832 1392 1515 2447 2209 l773 509 1033
327 c567 180 1303 388 1633 463 l602 135 1350 -30 1350 -30 1350 -496z
m-60496 -8520 l227 -184 45 -541 45 -542 -159 -1372 -158 -1372 -437 -1119
-437 -1118 -455 -569 -455 -568 -848 -570 -849 -571 -1336 -470 -1337 -471
-1900 0 -1900 0 -1173 536 -1172 536 -552 674 -551 674 -151 428 -151 427 4
863 5 862 128 358 c188 526 623 1037 1407 1651 l693 543 407 103 c223 57 836
232 1362 389 987 295 2691 576 5175 855 l1431 161 1069 286 c588 157 1233 289
1433 295 l364 9 226 -183z m-44749 -162 l245 -246 -1 -1279 0 -1280 -147 -974
-147 -974 -216 -426 c-549 -1079 -1227 -1867 -2361 -2746 l-522 -404 -1202
-412 c-661 -227 -1394 -457 -1628 -511 l-426 -98 -1528 -3 -1528 -2 -1215 496
-1214 497 -446 428 -445 429 -437 912 -437 911 0 473 0 474 425 855 425 855
650 543 c933 779 769 714 3850 1534 l700 186 2108 208 2107 207 993 290 992
291 580 5 579 6 246 -245z m48925 -6668 c93 -172 320 -536 502 -808 l333 -496
-54 -141 -55 -142 -228 3 -228 3 -307 280 c-169 153 -383 387 -475 519 l-168
240 0 307 c0 590 409 731 680 235z"/>
<path d="M138531 40054 l-319 -139 -113 -383 -113 -382 32 -2322 32 -2323 228
-227 227 -228 1546 -50 1545 -50 277 -277 277 -277 50 -11678 50 -11677 183
-279 183 -279 339 -141 339 -142 3556 0 3556 0 341 142 340 142 175 333 175
333 66 1652 66 1653 113 211 c146 274 361 351 662 236 l242 -92 393 -530 c894
-1206 2917 -2848 4058 -3292 282 -110 786 -332 1119 -493 l607 -293 1143 -255
c629 -141 1878 -366 2775 -501 l1630 -246 943 0 942 0 777 148 c427 81 1542
286 2477 457 l1700 310 1004 492 c553 271 1045 493 1093 493 165 0 1765 1126
2318 1631 302 276 819 832 1148 1235 l600 734 190 0 190 0 119 -223 119 -222
69 -1653 68 -1652 127 -264 c70 -145 237 -314 371 -375 l243 -111 3741 0 3741
0 262 119 c144 66 337 257 429 425 l168 306 53 5400 52 5400 382 1199 c482
1512 571 1684 1197 2327 l512 527 1050 410 1050 411 621 -50 622 -50 636 -298
637 -298 405 -389 405 -389 223 -600 c123 -330 286 -892 363 -1250 l139 -650
1 -5918 2 -5919 96 -251 c52 -138 219 -333 370 -432 l275 -180 3404 -31 c1873
-18 3597 -3 3832 31 l427 63 273 235 273 235 50 6533 50 6534 129 225 128 225
301 0 302 0 220 -238 c122 -132 284 -413 360 -625 75 -213 310 -674 520 -1025
211 -351 435 -801 499 -1000 64 -199 269 -637 454 -972 186 -336 428 -872 538
-1192 110 -320 331 -788 492 -1040 161 -252 389 -705 507 -1008 118 -302 343
-752 500 -1000 157 -247 382 -697 500 -1000 118 -302 343 -752 500 -1000 157
-247 378 -685 490 -971 112 -287 350 -779 527 -1094 l323 -572 5 -542 5 -542
-500 -443 c-275 -244 -622 -509 -771 -590 l-271 -147 -1329 -149 c-731 -81
-1743 -149 -2249 -149 l-921 -1 -243 -111 c-134 -61 -305 -230 -379 -375
l-135 -264 -34 -2500 -33 -2500 114 -383 114 -383 340 -142 341 -142 3978 2
3978 1 662 141 c364 77 927 273 1250 434 323 162 752 348 953 413 l365 118
758 647 758 646 634 855 c349 470 691 1021 761 1224 70 203 283 627 474 943
190 316 453 887 582 1268 130 382 354 866 497 1076 143 210 353 697 466 1082
113 385 354 993 534 1350 181 358 409 898 506 1200 98 303 329 853 514 1223
185 369 336 733 336 807 0 74 200 545 444 1047 245 503 542 1239 660 1637 119
398 347 956 506 1239 160 283 397 826 526 1206 130 380 372 962 540 1294 167
331 357 799 422 1039 99 367 645 1623 1135 2608 l124 250 346 119 347 120
3800 8 3800 7 407 185 c224 102 649 400 945 663 296 262 779 588 1074 723
l537 246 1169 -37 1168 -37 409 -233 c717 -408 915 -988 525 -1536 l-216 -304
-512 -234 -512 -235 -697 -100 c-383 -56 -1169 -103 -1747 -106 -577 -3 -1686
-67 -2464 -143 l-1414 -137 -838 -256 c-460 -140 -1269 -325 -1797 -410 -528
-84 -1112 -210 -1298 -279 -664 -245 -1823 -932 -2444 -1449 l-630 -525 -292
-525 c-161 -289 -411 -731 -556 -982 l-264 -457 -164 -793 -165 -793 55 -1550
56 -1550 159 -588 160 -587 542 -813 c298 -446 781 -1044 1073 -1328 l531
-517 970 -556 970 -556 630 -148 c347 -81 1103 -240 1680 -352 l1050 -205
1314 0 1313 0 1487 356 1486 357 700 410 c385 225 906 537 1157 692 252 156
601 333 777 394 l319 112 252 -165 251 -165 231 -522 231 -523 271 -123 270
-123 3850 0 3850 0 246 245 245 246 -1 579 -1 580 -168 550 -167 550 -63 5850
-63 5850 -113 650 c-62 358 -184 1119 -270 1692 l-156 1042 -264 458 c-146
252 -381 683 -523 958 l-258 500 -851 862 -852 862 -800 402 c-440 221 -980
496 -1200 611 l-400 208 -1950 422 -1950 422 -1985 36 -1985 37 -815 -153
c-448 -84 -1580 -292 -2515 -462 l-1700 -310 -900 -444 -900 -445 -370 1 -371
1 -322 401 -323 402 -357 105 -357 105 -4050 -32 -4050 -31 -300 -151 -300
-151 -304 -899 c-167 -494 -398 -1079 -512 -1299 -115 -220 -286 -670 -380
-1000 -95 -330 -323 -967 -508 -1415 -185 -448 -428 -1173 -540 -1611 -112
-438 -335 -1107 -496 -1485 -161 -379 -390 -1068 -508 -1530 -299 -1172 -667
-1823 -1189 -2102 l-230 -123 -187 170 c-103 93 -263 400 -355 683 -92 282
-319 788 -505 1124 -186 336 -431 899 -546 1250 -114 352 -333 864 -487 1139
-153 275 -358 748 -455 1050 -97 302 -346 888 -553 1300 -208 413 -444 979
-526 1258 -81 279 -288 755 -458 1058 -171 302 -405 838 -521 1191 -116 352
-303 770 -415 929 l-205 287 -410 186 -410 187 -3993 2 -3993 2 -687 -221
-688 -222 -619 170 c-341 94 -1201 309 -1910 477 l-1290 307 -2010 -37 -2010
-37 -1186 -266 -1186 -266 -464 -267 c-255 -147 -707 -395 -1005 -551 -297
-156 -614 -351 -703 -432 -90 -81 -337 -220 -549 -308 l-385 -162 -232 59
-233 58 -113 424 c-62 233 -174 568 -249 744 l-137 320 -379 111 -379 111
-3822 -31 -3823 -31 -227 -228 -228 -227 -51 -2229 -52 -2229 -176 -268 c-96
-148 -240 -269 -319 -269 l-144 0 -274 475 c-569 982 -1995 2497 -3085 3274
-384 275 -1171 739 -1749 1031 l-1050 531 -1100 250 c-605 137 -1635 359
-2289 494 l-1189 245 -1561 -1 -1561 0 -1100 -200 c-605 -111 -1646 -328
-2314 -484 l-1213 -283 -644 -310 c-354 -171 -887 -407 -1186 -525 -299 -117
-723 -357 -943 -533 -220 -176 -580 -435 -800 -578 -519 -335 -1652 -1462
-2156 -2144 -433 -587 -650 -742 -1034 -742 l-253 0 -128 225 -129 225 -50
6017 -50 6017 -243 258 c-133 142 -403 303 -600 358 l-357 99 -5700 -3 -5700
-4 -319 -138z m27970 -13888 c1087 -300 1365 -449 1879 -1006 l420 -456 0
-202 c0 -111 -86 -288 -192 -394 l-192 -192 -533 -66 c-293 -36 -1795 -51
-3338 -33 l-2804 33 -271 177 -270 178 0 283 0 283 537 508 537 508 538 153
c1065 304 1747 438 2289 449 l550 11 850 -234z m76488 -7630 l234 -163 -47
-484 -46 -483 -245 -476 -245 -476 -995 -622 -995 -622 -480 -105 c-625 -137
-2023 -134 -2671 5 l-511 109 -386 368 -387 368 -68 273 c-38 150 -40 429 -4
619 l65 345 288 289 289 289 433 120 c821 229 4234 786 4885 798 l652 12 234
-164z m-65270 -834 l201 -249 -54 -401 -54 -402 -261 -225 -262 -225 -1374 0
-1373 0 -546 138 -546 138 -2062 54 -2062 55 -488 -229 c-268 -126 -698 -416
-955 -644 -257 -229 -662 -490 -900 -582 l-433 -166 -1400 -5 -1400 -6 -419
126 c-531 159 -1876 1063 -2146 1442 -113 159 -228 455 -255 659 l-50 371 185
164 c102 90 275 187 385 214 110 27 3770 43 8134 35 l7934 -14 201 -248z"/>
<path d="M263167 38501 c-97 -164 -337 -421 -534 -571 -196 -149 -687 -724
-1090 -1276 -404 -552 -844 -1140 -978 -1306 -135 -166 -349 -481 -475 -700
-127 -219 -396 -623 -597 -898 -201 -275 -487 -747 -634 -1050 -148 -302 -353
-701 -457 -886 l-187 -336 78 -214 79 -214 257 -31 258 -31 324 168 c304 157
698 441 1789 1289 248 192 909 688 1470 1103 l1021 753 296 430 c163 237 367
490 455 562 254 212 185 307 -225 307 l-382 0 -243 258 -242 259 2 716 2 717
283 476 283 476 -57 149 c-91 238 -306 173 -496 -150z"/>
</g>
</svg>
