<?xml version="1.0" encoding="utf-8"?>
<!-- Generator: Adobe Illustrator 11 Build 197, SVG Export Plug-In  -->
<!DOCTYPE svg PUBLIC "-//W3C//DTD SVG 1.0//EN"    "http://www.w3.org/TR/2001/REC-SVG-20010904/DTD/svg10.dtd" [
	<!ENTITY ns_flows "http://ns.adobe.com/Flows/1.0/">
	<!ENTITY ns_svg "http://www.w3.org/2000/svg">
	<!ENTITY ns_xlink "http://www.w3.org/1999/xlink">
]>
<svg  xmlns="&ns_svg;" xmlns:xlink="&ns_xlink;" xmlns:a="http://ns.adobe.com/AdobeSVGViewerExtensions/3.0/"
	 width="233" height="59" viewBox="-0.326 -0.126 233 59" xml:space="preserve">
	<defs>
	</defs>
	<g>
		<path display="none" fill="none" d="M201.447,23.907c-1.035,0.114-2.079,0.206-2.99,0.24c-0.43,0.046-0.857,0.085-1.288,0.117
			C198.6,24.229,200.041,24.12,201.447,23.907z"/>
		<path display="none" fill="none" d="M221.461,9.276c-0.113-0.022-0.23-0.044-0.346-0.066c-0.129-0.012-0.256-0.024-0.383-0.042
			C220.973,9.21,221.217,9.246,221.461,9.276z"/>
		<path display="none" fill="#FFFFFF" stroke="#000000" stroke-width="0.6" d="M195.23,27.571c0.26-0.042,0.522-0.097,0.787-0.164
			c0.262-0.067,0.522-0.146,0.783-0.231c-0.199-0.021-0.398-0.041-0.602-0.055c-0.201-0.014-0.404-0.025-0.606-0.03
			c0.226-0.005,0.453-0.003,0.681,0.002c0.227,0.007,0.451,0.019,0.68,0.031c0.214-0.075,0.427-0.156,0.637-0.24
			s0.418-0.173,0.619-0.263c-0.339-0.006-0.678-0.016-1.018-0.034c-0.34-0.018-0.676-0.046-1.01-0.088
			c0.379,0.03,0.754,0.039,1.131,0.039c0.375,0,0.754-0.009,1.133-0.021c0.287-0.136,0.565-0.273,0.83-0.41
			c0.266-0.138,0.516-0.271,0.746-0.4c-0.547,0.029-1.094,0.026-1.638,0.006c-0.542-0.021-1.083-0.059-1.61-0.1
			c0.592,0.02,1.203,0.03,1.815,0.017c0.608-0.013,1.216-0.05,1.792-0.127c0.062-0.035,0.117-0.067,0.17-0.099
			c0.059-0.033,0.109-0.064,0.162-0.095c-0.18,0.042-0.373,0.056-0.561,0.045c-0.188-0.009-0.37-0.042-0.532-0.099
			c0.185,0.055,0.39,0.077,0.588,0.073c0.199-0.006,0.397-0.039,0.567-0.1l0.015,0.015l0.01,0.015
			c0.005-0.002,0.009-0.005,0.013-0.008c0.004-0.002,0.01-0.004,0.012-0.007c0.109-0.062,0.217-0.128,0.322-0.193
			c0.104-0.064,0.211-0.13,0.312-0.194c-0.21-0.002-0.419-0.008-0.63-0.021c-0.207-0.013-0.414-0.029-0.621-0.052
			c0.228,0.014,0.452,0.021,0.678,0.022c0.229,0.001,0.453-0.005,0.679-0.017c0.188-0.121,0.373-0.244,0.554-0.368
			c0.18-0.124,0.36-0.251,0.536-0.378c-0.196,0.026-0.397,0.05-0.601,0.074c-0.2,0.024-0.405,0.048-0.608,0.07
			c-0.704,0.105-1.416,0.187-2.133,0.245c-0.713,0.059-1.432,0.095-2.146,0.112c0.215-0.014,0.43-0.034,0.645-0.053
			c0.215-0.018,0.43-0.042,0.644-0.063c-0.358,0.016-0.695,0.02-1.003,0.013c-0.311-0.006-0.588-0.023-0.827-0.053
			c-0.136-0.092-0.271-0.189-0.411-0.291c-0.143-0.104-0.287-0.213-0.436-0.327c-0.713-0.294-1.34-0.654-1.899-1.054
			c-0.562-0.398-1.049-0.838-1.487-1.29c-0.065-0.073-0.132-0.146-0.197-0.222c-0.065-0.074-0.129-0.151-0.191-0.226
			c-0.146,0.317-0.271,0.638-0.373,0.956s-0.178,0.638-0.229,0.957c0.256,0.22,0.586,0.422,0.94,0.607
			c0.354,0.188,0.735,0.357,1.097,0.512c-0.349-0.133-0.719-0.27-1.072-0.42c-0.356-0.15-0.698-0.317-0.99-0.512
			c-0.051,0.408-0.057,0.812-0.008,1.211c0.046,0.4,0.145,0.798,0.302,1.191c0.062,0.146,0.159,0.396,0.298,0.676
			c0.141,0.279,0.318,0.584,0.534,0.84"/>
		<path display="none" fill="#FFFFFF" stroke="#000000" stroke-width="0.6" stroke-linecap="square" d="M216.848,3.52
			c-0.016,0.002-0.024,0.006-0.039,0.01c-0.707,1.279-0.82,2.736-0.985,4.1c-0.003-1.281-0.105-2.637,0.351-3.932
			c-0.601,0.162-1.195,0.333-1.783,0.512c-0.298,0.515-0.361,1.094-0.334,1.646c-0.089-0.511-0.117-1.048,0.07-1.563
			c-0.283,0.088-0.566,0.176-0.848,0.27c-0.215,0.403-0.344,0.822-0.107,1.234c-0.275-0.374-0.229-0.778-0.09-1.17
			c-0.289,0.093-0.578,0.189-0.865,0.286c-0.658,0.224-1.297,0.463-1.921,0.716c0.138,0.429,0.281,0.857,0.324,1.292
			c-0.101-0.419-0.29-0.822-0.478-1.23c-0.326,0.135-0.646,0.271-0.963,0.412c0.016,0.097,0.032,0.191,0.065,0.287
			c-0.043-0.089-0.074-0.181-0.101-0.271c-0.86,0.384-1.689,0.796-2.485,1.227c0.106,1.104,1.014,2.189,1.702,3.247
			c-0.777-0.972-1.766-1.923-2.104-3.024c-0.271,0.149-0.536,0.303-0.799,0.458c0.192,0.467,0.595,0.921,1.037,1.325
			c-0.47-0.368-0.922-0.78-1.192-1.231c-0.783,0.465-1.535,0.953-2.262,1.453c0.239,1.382,1.377,2.724,2.473,3.981
			c-1.168-1.129-2.42-2.309-2.942-3.65c-0.171,0.121-0.339,0.242-0.503,0.364c0.062,0.188,0.132,0.377,0.207,0.564
			c-0.094-0.173-0.186-0.346-0.27-0.521c-0.361,0.268-0.718,0.538-1.068,0.811c0.076,0.085,0.162,0.166,0.258,0.244
			c-0.104-0.071-0.197-0.146-0.281-0.223c-0.027,0.02-0.053,0.043-0.081,0.062c0.769,1.317,2.626,4.387,3.89,5.322
			c1.846-0.046,4.83-0.121,6.963-0.208c0.1-0.07,0.196-0.143,0.297-0.212c-0.877,0.062-1.764,0.07-2.641,0.052
			c0.967-0.026,1.932-0.087,2.866-0.212c0.448-0.314,0.903-0.628,1.362-0.938c-0.641-0.029-1.311,0.042-1.967,0.025
			c0.701-0.015,1.381-0.131,2.104-0.118c0.28-0.188,0.561-0.376,0.844-0.562c-0.688,0.062-1.382,0.045-2.064,0.028
			c0.767-0.017,1.543-0.042,2.271-0.164c0.378-0.249,0.757-0.497,1.138-0.742c-1.557,0.103-3.119,0.187-4.686,0.195
			c1.727-0.095,3.428-0.278,5.124-0.479c0.271-0.174,0.539-0.347,0.812-0.521c-0.28,0.004-0.562-0.004-0.832-0.008
			c0.295-0.008,0.604-0.014,0.902-0.036c0.176-0.111,0.352-0.222,0.525-0.335c-0.381,0.022-0.766-0.002-1.133-0.044
			c0.412,0.027,0.845,0.029,1.244-0.025c0.158-0.101,0.315-0.201,0.478-0.303c-0.312-0.002-0.626,0.003-0.937,0.032
			c0.334-0.045,0.674-0.068,1.015-0.081c0.862-0.542,1.741-1.072,2.629-1.591c-1.388-0.089-2.749-0.245-4.134-0.282
			c1.492-0.031,2.994,0.075,4.471,0.083c0.355-0.206,0.713-0.41,1.072-0.612c-0.323-0.062-0.653-0.128-0.984-0.19
			c-0.246-0.031-0.486-0.065-0.729-0.107c0.125,0.017,0.254,0.029,0.381,0.042"/>
		<path display="none" fill="#FFFFFF" stroke="#000000" stroke-width="0.6" stroke-linecap="round" stroke-linejoin="bevel" d="
			M221.161,9.152c0.545,0.054,1.096,0.079,1.644,0.081c0.049-0.027,0.1-0.056,0.146-0.082c-0.327-0.046-0.655-0.086-0.992-0.1
			c0.357-0.004,0.717,0.023,1.07,0.057c0.41-0.23,0.822-0.457,1.236-0.688c-0.861-0.128-1.75-0.215-2.603-0.376
			c0.925,0.127,1.864,0.167,2.808,0.269c0.146-0.079,0.291-0.159,0.438-0.238c-0.289-0.051-0.585-0.082-0.889-0.088
			c0.318-0.008,0.64,0.011,0.955,0.051c0.69-0.373,1.389-0.742,2.092-1.106c-0.943-0.156-1.879-0.337-2.752-0.604
			c0.961,0.237,1.965,0.371,2.977,0.484c0.82-0.427,1.646-0.848,2.475-1.266c-0.99-0.123-2.002-0.214-2.994-0.343
			c1.076,0.087,2.166,0.128,3.252,0.213c0.576-0.29,1.154-0.58,1.736-0.868c-0.587-0.009-1.169-0.042-1.751-0.056
			c0.644-0.015,1.296-0.007,1.935-0.036c0.634-0.312,1.268-0.627,1.902-0.938c-0.56,0.005-1.119,0.005-1.678,0.027
			c0.619-0.055,1.248-0.083,1.866-0.122c0.753-0.367,1.506-0.737,2.262-1.107c-1.787,0.312-3.618,0.42-5.305,0.875
			c1.495-0.495,3.192-0.708,4.772-1.042c-0.688-0.05-1.543-0.167-1.83-0.182c-0.104-0.006-0.207-0.01-0.309-0.015
			c-0.025,0.007-0.053,0.011-0.079,0.017c-0.802,0.175-1.61,0.366-2.457,0.449c0.729-0.109,1.412-0.297,2.097-0.485
			c-0.752-0.033-1.506-0.058-2.256-0.068c-0.041-0.001-0.082-0.001-0.121-0.002c-0.459,0.248-0.914,0.5-1.389,0.734
			c0.408-0.237,0.794-0.487,1.186-0.735c-0.564-0.007-1.129-0.006-1.69,0.003c-0.42,0.266-0.804,0.555-1.164,0.851
			c0.299-0.29,0.617-0.576,0.972-0.848c-0.725,0.011-1.445,0.036-2.166,0.075c-0.257,0.257-0.451,0.537-0.57,0.832
			c0.074-0.283,0.22-0.562,0.429-0.823c-0.47,0.027-0.937,0.06-1.403,0.099c-0.5,0.53-0.854,1.107-0.892,1.732
			c-0.048-0.589,0.202-1.165,0.599-1.706c-0.109,0.011-0.219,0.019-0.328,0.03c-0.961,0.094-1.906,0.221-2.84,0.371
			c-0.671,0.792-1.148,1.643-1.26,2.545c-0.012-0.845,0.312-1.684,0.826-2.476c-1.438,0.247-2.846,0.556-4.223,0.91"/>
		<path display="none" fill="#FFFFFF" stroke="#000000" stroke-width="0.6" stroke-linecap="round" stroke-linejoin="bevel" d="
			M211.328,16.57c0.117-0.084,0.236-0.171,0.357-0.254c-2.134,0.086-5.119,0.162-6.965,0.207c-1.262-0.936-3.121-4.005-3.888-5.322
			c-0.495,0.389-0.979,0.784-1.45,1.181c-0.008,0.598,0.163,1.199,0.535,1.762c-0.402-0.49-0.65-1.027-0.751-1.577
			c-0.147,0.125-0.293,0.251-0.438,0.378c-0.008,0.408,0.049,0.814,0.306,1.199c-0.277-0.333-0.396-0.7-0.452-1.071
			c-0.229,0.199-0.461,0.407-0.699,0.618c0.004,0.28,0.113,0.562,0.366,0.809c-0.256-0.208-0.407-0.458-0.465-0.719
			c-0.658,0.59-1.331,1.22-1.987,1.878c0.455,0.985,1.387,1.912,2.549,2.688c-1.168-0.665-2.193-1.486-2.82-2.411
			c-0.228,0.233-0.449,0.471-0.668,0.71c0.324,0.357,0.793,0.692,1.231,0.989c-0.448-0.269-0.946-0.556-1.323-0.889
			c-0.574,0.634-1.111,1.288-1.582,1.953c0.188,0.257,0.34,0.522,0.549,0.771c-0.225-0.222-0.405-0.463-0.607-0.69
			c-0.113,0.162-0.223,0.326-0.329,0.488c0.226,0.321,0.474,0.64,0.838,0.911c-0.374-0.235-0.651-0.517-0.903-0.807
			c-0.182,0.286-0.348,0.573-0.496,0.86c0,0.002-0.002,0.003-0.002,0.004c0.156,0.269,0.336,0.536,0.533,0.795
			c0.729,0.916,1.676,1.8,3.012,2.455c0.008,0.003,0.016,0.006,0.019,0.009c-0.003-0.001-0.009-0.003-0.014-0.005
			c0.295,0.228,0.581,0.437,0.847,0.617c0.479,0.061,1.111,0.068,1.83,0.042c1.741-0.188,3.445-0.495,4.994-0.976
			c0.271-0.21,0.538-0.423,0.801-0.638c-0.299,0.016-0.6,0.043-0.896,0.072c0.314-0.045,0.634-0.093,0.957-0.121
			c0.086-0.074,0.177-0.147,0.264-0.22c-0.834,0.065-1.668,0.102-2.497,0.163c0.888-0.111,1.792-0.19,2.674-0.312
			c0.097-0.082,0.193-0.165,0.289-0.249c-1.172,0.146-2.358,0.255-3.553,0.264c1.306-0.073,2.567-0.264,3.813-0.491
			c0.409-0.357,0.813-0.718,1.217-1.079c-0.304,0-0.604,0.009-0.905,0.031c0.315-0.041,0.635-0.062,0.956-0.078
			c0.312-0.279,0.626-0.562,0.939-0.843c-0.727,0.066-1.459,0.126-2.193,0.152c0.791-0.068,1.564-0.171,2.34-0.283
			c0.554-0.492,1.113-0.979,1.691-1.458c-1.904,0.271-3.857,0.398-5.797,0.379c2.156-0.084,4.275-0.349,6.289-0.776
			c0.26-0.204,0.521-0.408,0.79-0.607c0.177-0.131,0.354-0.26,0.534-0.391c-0.532,0.08-1.085,0.11-1.625,0.058
			C210.157,16.777,210.764,16.701,211.328,16.57z M210.705,16.895l0.025,0.06c-0.434,0.052-0.864,0.037-1.287,0.088
			C209.857,16.97,210.3,16.962,210.705,16.895z"/>
		<path display="none" fill="#FFFFFF" stroke="#000000" stroke-width="0.5" d="M185.564,35.591c0,0,1.729-1.705,4.636-2.181
			c1.021-1.893,11.606-19.438,32.126-27.609C216.887,7.994,200.921,14.625,185.564,35.591z"/>
		<polyline display="none" points="189.648,30.425 189.686,33.412 185.992,35.109 "/>
		<path d="M0.786,41.682c0.215-3.763,3.253-5.379,7.471-5.379c3.253,0,6.792,0.872,6.792,5.162v8.52
			c0,0.745,0.428,1.181,1.322,1.181c0.25,0,0.537-0.062,0.715-0.123v1.646c-0.5,0.097-0.858,0.125-1.465,0.125
			c-2.288,0-2.646-1.119-2.646-2.8h-0.071c-1.573,2.084-3.181,3.266-6.72,3.266C2.789,53.279,0,51.818,0,48.583
			c0-4.508,5.041-4.664,9.901-5.161c1.86-0.187,2.897-0.404,2.897-2.176c0-2.643-2.181-3.296-4.827-3.296
			c-2.787,0-4.861,1.119-4.933,3.73L0.786,41.682L0.786,41.682z M12.797,44.042h-0.072c-0.286,0.467-1.286,0.624-1.895,0.717
			c-3.824,0.592-8.579,0.562-8.579,3.7c0,1.957,2.001,3.17,4.11,3.17c3.432,0,6.471-1.896,6.435-5.036L12.797,44.042L12.797,44.042z
			"/>
		<path d="M15.801,36.77h2.073v3.045h0.071c1.036-2.175,3.61-3.513,6.577-3.513c5.612,0,8.294,3.949,8.294,8.488
			c0,4.537-2.682,8.485-8.294,8.485c-2.752,0-5.433-1.213-6.398-3.512h-0.071v8.984h-2.252V36.77z M24.522,37.952
			c-4.968,0-6.469,3.201-6.469,6.841c0,3.325,1.679,6.839,6.469,6.839c4.29,0,6.042-3.514,6.042-6.839
			C30.563,41.464,28.812,37.952,24.522,37.952z"/>
		<path d="M32.35,41.682c0.215-3.763,3.253-5.379,7.472-5.379c3.252,0,6.791,0.872,6.791,5.162v8.52
			c0,0.745,0.429,1.181,1.322,1.181c0.25,0,0.537-0.062,0.716-0.123v1.646c-0.5,0.097-0.858,0.125-1.467,0.125
			c-2.287,0-2.645-1.119-2.645-2.8h-0.071c-1.573,2.084-3.182,3.266-6.72,3.266c-3.397,0-6.184-1.459-6.184-4.694
			c0-4.508,5.04-4.662,9.9-5.161c1.859-0.187,2.896-0.403,2.896-2.176c0-2.643-2.18-3.295-4.825-3.295
			c-2.788,0-4.862,1.118-4.933,3.729L32.35,41.682L32.35,41.682z M44.361,44.042H44.29c-0.287,0.467-1.287,0.624-1.895,0.717
			c-3.824,0.592-8.579,0.562-8.579,3.7c0,1.957,2.001,3.17,4.11,3.17c3.432,0,6.471-1.896,6.435-5.036V44.042z"/>
		<path d="M60.375,41.806c-0.606-2.396-2.287-3.854-5.217-3.854c-4.326,0-6.471,3.419-6.471,6.841c0,3.419,2.146,6.839,6.471,6.839
			c2.788,0,5.075-1.896,5.361-4.569h2.252c-0.607,3.854-3.502,6.218-7.613,6.218c-5.649,0-8.723-3.887-8.723-8.486
			c0-4.603,3.075-8.488,8.723-8.488c3.931,0,6.97,1.835,7.47,5.503h-2.253V41.806z"/>
		<path d="M62.128,30.615h2.251v8.924h0.072c0.822-1.93,3.289-3.233,5.898-3.233c5.182,0,6.755,2.362,6.755,6.187v10.322h-2.251
			V42.8c0-2.768-1.037-4.849-4.683-4.849c-3.575,0-5.719,2.362-5.792,5.503v9.357h-2.251L62.128,30.615L62.128,30.615z"/>
		<path d="M78.929,45.321c0.035,2.857,1.752,6.311,6.077,6.311c3.289,0,5.076-1.678,5.791-4.104h2.252
			c-0.965,3.637-3.397,5.752-8.042,5.752c-5.863,0-8.33-3.917-8.33-8.486c0-4.229,2.466-8.488,8.33-8.488
			c5.934,0,8.294,4.509,8.114,9.018H78.929V45.321z M90.868,43.671c-0.107-2.953-2.216-5.721-5.862-5.721
			c-3.682,0-5.72,2.798-6.077,5.721H90.868z"/>
		<rect x="100.84" y="30.952" width="6.902" height="21.635"/> 
		<path d="M113.847,46.073c0.176,1.786,1.361,3.061,3.521,3.061c1.118,0,2.338-0.364,2.896-1.122h6.452
			c-1.396,3.395-5.196,4.971-9.312,4.971c-5.787,0-10.146-2.971-10.146-8.213c0-4.576,3.835-8.302,9.556-8.302
			c7.183,0,10.286,3.484,10.286,9.605H113.847z M120.473,42.952c0-1.457-1.256-2.637-3.034-2.637c-2.059,0-3.241,0.938-3.556,2.637
			H120.473z"/>
		<path d="M126.334,36.861h6.659v2h0.069c1.291-1.575,3.139-2.395,5.896-2.395c3.243,0,6.206,1.727,6.206,5.332v10.787h-6.902
			v-8.242c0-1.818-0.246-3.09-2.268-3.09c-1.188,0-2.756,0.515-2.756,3.029v8.303h-6.903L126.334,36.861L126.334,36.861z"/>
		<path d="M157.302,51.375c-0.56,1.395-1.186,3.181-2.267,4.362c-1.812,1.97-4.604,1.938-7.288,1.938h-3.14V52.89h1.604
			c0.696,0,1.604,0.062,2.092-0.151c0.42-0.183,0.663-0.485,0.663-1.183c0-0.758-2.649-6.547-3.032-7.455l-3.068-7.24h7.391
			l2.896,9.028h0.072l2.926-9.028h7.149L157.302,51.375z"/>
		<path d="M178.645,49.072c0,1.182,0.07,2.517,0.838,3.515h-7.043c-0.176-0.424-0.279-1.06-0.244-1.482h-0.07
			c-1.465,1.453-3.591,1.878-5.822,1.878c-3.49,0-6.384-1.454-6.384-4.759c0-4.97,6.694-4.786,10.22-5.362
			c0.94-0.151,1.881-0.396,1.881-1.395c0-1.061-1.148-1.456-2.265-1.456c-2.128,0-2.545,0.939-2.582,1.606h-6.416
			c0.104-2.213,1.36-3.515,3.138-4.242c1.744-0.728,4.045-0.907,6.174-0.907c8.647,0,8.578,3.12,8.578,6.148v6.456H178.645z
			 M172.02,45.526c-0.836,0.363-1.778,0.576-2.721,0.758c-1.533,0.303-2.337,0.636-2.337,1.696c0,0.727,0.908,1.456,2.163,1.456
			c1.568,0,2.791-0.818,2.895-2.455V45.526L172.02,45.526z"/>
		<rect x="97.564" y="30.951" width="3.378" height="4.182"/> 
		<path fill="none" stroke="#000000" stroke-width="1.6" d="M196.904,29.619c0.207,0.794,0.316,1.628,0.316,2.486
			c0,5.468-4.435,9.9-9.904,9.9c-5.467,0-9.901-4.434-9.901-9.9c0-5.47,4.435-9.904,9.901-9.904c0.447,0,0.887,0.03,1.314,0.086"/>
		<path fill="none" stroke="#000000" stroke-width="0.6" stroke-linecap="round" stroke-linejoin="round" d="M187.299,34.5
			c-0.326,0.423-2.365,0.481-4.104,2.938c22.166-31.334,45.166-36.334,45.166-36.334S207.466,8.416,187.299,34.5z"/>
		<path d="M183.195,37.437c1.205-1.704,2.544-2.248,3.367-2.566v-1.972C185.439,34.352,184.316,35.852,183.195,37.437z"/>
		<path fill="none" d="M197.416,13.684c-0.527,0.484-1.748,1.452-2.264,1.888c-0.637,0.537-1.25,1.285-1.881,1.833
			c-0.885,0.766-1.863,1.624-2.362,2.724c-0.481,1.061-1.384,2.247-1.298,3.517c0.078,1.177,0.049,2.287,0.156,3.47
			c0.041,0.375,0.42,0.96,0.379,1.335"/>
		<path d="M197.223,13.455c-2.14,1.903-4.774,3.672-6.351,6.101c-0.75,1.155-1.524,2.66-1.56,4.061
			c-0.021,0.776,0.052,1.604,0.088,2.386c0.045,0.911,0.352,1.627,0.451,2.5c0.045,0.385,0.635,0.278,0.592-0.104
			c-0.057-0.478-0.258-0.868-0.379-1.335c-0.228-0.863-0.092-1.909-0.123-2.807c-0.062-1.737,0.733-3.298,1.668-4.737
			c0.824-1.271,2.287-2.306,3.356-3.373c0.813-0.812,1.785-1.47,2.644-2.232C197.898,13.656,197.512,13.197,197.223,13.455
			L197.223,13.455z"/>
		<path fill="none" d="M215.111,3.187c-1.381,0.425-3.783,1.901-4.801,2.426c-0.834,0.429-1.752,0.663-2.574,1.125
			c-0.961,0.541-1.832,1.197-2.832,1.699c-0.76,0.38-1.465,0.871-2.168,1.333c-1.277,0.838-2.473,1.671-3.334,2.959
			c-0.207,0.333-0.416,0.667-0.541,1.042c-0.084,0.167-0.125,0.333-0.166,0.5c-0.084,0.25-0.209,0.458-0.334,0.667
			c-0.334,0.75-0.666,1.542-0.75,2.375c-0.041,0.417-0.166,0.792-0.209,1.167c0,0.25-0.041,0.458-0.041,0.708s-0.084,0.822,0,1.072"
			/>
		<path d="M214.982,2.916c-1.855,0.632-3.463,1.792-5.224,2.626c-2.497,1.183-4.899,2.466-7.217,3.999
			c-1.819,1.204-3.419,2.499-4.129,4.626c-0.356,1.068-0.921,1.974-1.101,3.117c-0.158,1.003-0.36,2.007-0.248,3.028
			c0.045,0.385,0.635,0.277,0.593-0.104c-0.257-2.285,0.791-4.254,1.485-6.333c0.762-2.28,3.508-3.781,5.439-4.926
			c1.092-0.647,2.188-1.296,3.282-1.939c0.879-0.517,1.894-0.765,2.795-1.241c1.51-0.799,2.952-1.757,4.579-2.31
			C215.605,3.333,215.346,2.792,214.982,2.916L214.982,2.916z"/>
		<path fill="none" d="M213.82,7.508c-0.074-1.06,0.337-3.701,1.291-4.322"/>
		<path d="M214.116,7.457c-0.06-1.205,0.149-3.262,1.188-4.042c0.311-0.231-0.08-0.688-0.389-0.458
			c-1.227,0.92-1.461,3.196-1.393,4.604C213.544,7.947,214.135,7.837,214.116,7.457L214.116,7.457z"/>
		<path fill="none" d="M214.195,7.02c-0.043-0.375,0.166-0.792,0.332-1.125c0.293-0.542,0.638-1.259,1.097-1.634
			c0.416-0.375,0.687-0.971,1.144-1.305c0.418-0.292,1.021-0.482,1.49-0.667c1.049-0.409,1.896-0.75,2.896-1.083
			c0.582-0.167,1.166-0.187,1.707-0.312c0.543-0.125,1.043-0.25,1.584-0.333c0.834-0.083,1.625-0.167,2.459-0.167
			c0.791,0,1.666-0.083,2.457,0.167c-0.041,0.25-0.707,0.292-0.875,0.458"/>
		<path d="M214.494,7.047c0.107-1.354,1.17-2.271,1.932-3.281c0.836-1.107,2.654-1.485,3.895-1.95
			c2.562-0.96,6.248-1.604,8.938-0.975c-0.047-0.15-0.094-0.302-0.142-0.452c-0.166,0.194-0.536,0.241-0.759,0.358
			c-0.34,0.181-0.084,0.725,0.259,0.542c0.372-0.197,0.715-0.23,0.991-0.558c0.117-0.137,0.039-0.411-0.142-0.453
			c-3.1-0.728-6.946,0.073-9.87,1.169c-1.318,0.494-2.758,0.835-3.66,1.972c-0.851,1.068-1.924,2.129-2.039,3.57
			C213.866,7.377,214.464,7.434,214.494,7.047L214.494,7.047z"/>
		<path fill="none" d="M215.305,6.536c0.043-0.417,0.352-2.121,0.602-2.579"/>
		<path d="M215.604,6.564c0.092-0.812,0.217-1.768,0.584-2.503c0.172-0.348-0.393-0.551-0.562-0.208
			c-0.387,0.774-0.521,1.801-0.618,2.654C214.963,6.893,215.561,6.948,215.604,6.564L215.604,6.564z"/>
		<path fill="none" d="M217.258,5.442c-0.084-0.75,0.453-2.172,0.745-2.881"/>
		<path d="M217.555,5.39c-0.062-0.911,0.394-1.898,0.729-2.726c0.146-0.358-0.417-0.564-0.562-0.208
			c-0.385,0.94-0.83,2.002-0.761,3.037C216.989,5.879,217.579,5.772,217.555,5.39L217.555,5.39z"/>
		<path fill="none" d="M218.236,4.812c0-0.458,0.084-0.875,0.209-1.292c0.082-0.208,0.207-0.417,0.291-0.625
			c0.041-0.125,0.084-0.566,0.166-0.649"/>
		<path d="M218.535,4.839c0.014-0.534,0.102-1.046,0.337-1.527c0.132-0.269,0.133-0.651,0.276-0.895
			c0.197-0.33-0.293-0.677-0.491-0.344c-0.187,0.312-0.187,0.699-0.349,1.029c-0.257,0.522-0.356,1.101-0.371,1.68
			C217.928,5.167,218.525,5.227,218.535,4.839L218.535,4.839z"/>
		<path fill="none" d="M219.949,3.938c0-0.417,0.041-0.792,0.125-1.167c0.083-0.333,0.125-0.708,0.333-1"/>
		<path d="M220.248,3.965c0.009-0.644,0.061-1.46,0.404-2.022c0.201-0.328-0.288-0.674-0.491-0.344
			c-0.402,0.655-0.5,1.555-0.511,2.31C219.645,4.293,220.242,4.353,220.248,3.965L220.248,3.965z"/>
		<path fill="none" d="M220.777,3.645c-0.125-0.458,0.125-1.125,0.293-1.5c0.082-0.25,0.207-0.75,0.375-0.917"/>
		<path d="M221.074,3.592c-0.083-0.427,0.07-0.843,0.23-1.233c0.127-0.314,0.174-0.688,0.387-0.958
			c0.238-0.306-0.254-0.647-0.492-0.344c-0.271,0.345-0.346,0.814-0.508,1.215c-0.183,0.447-0.303,0.943-0.209,1.426
			C220.557,4.077,221.146,3.973,221.074,3.592L221.074,3.592z"/>
		<path fill="none" d="M222.295,1.711c0.084-0.25,0.167-0.625,0.375-0.792"/>
		<path d="M222.576,1.816c0.07-0.222,0.119-0.496,0.287-0.667c0.27-0.273-0.115-0.734-0.389-0.458
			c-0.256,0.261-0.353,0.574-0.461,0.917C221.896,1.977,222.459,2.185,222.576,1.816L222.576,1.816z"/>
		<path fill="none" d="M223.348,1.826c-0.041-0.333,0.334-0.958,0.584-1.125"/>
		<path d="M223.646,1.855c-0.006-0.344,0.213-0.714,0.479-0.924c0.303-0.241-0.086-0.699-0.389-0.458
			c-0.373,0.297-0.695,0.84-0.688,1.325C223.055,2.181,223.652,2.241,223.646,1.855L223.646,1.855z"/>
		<path fill="none" d="M224.277,2.187c0.084-0.292,0.125-0.583,0.209-0.875c0.041-0.083,0.084-0.208,0.125-0.292
			c0.125-0.167,0.291-0.347,0.375-0.513"/>
		<path d="M224.561,2.291c0.076-0.29,0.133-0.584,0.207-0.875c0.072-0.277,0.32-0.495,0.465-0.735
			c0.197-0.33-0.293-0.677-0.491-0.345c-0.151,0.252-0.356,0.453-0.474,0.727c-0.138,0.323-0.183,0.681-0.271,1.021
			C223.9,2.454,224.462,2.665,224.561,2.291L224.561,2.291z"/>
		<path fill="none" d="M225.445,1.687c0.041-0.333,0.438-1.032,0.688-1.24"/>
		<path d="M225.744,1.714c0.068-0.364,0.312-0.787,0.583-1.039c0.28-0.264-0.104-0.723-0.39-0.458
			c-0.39,0.365-0.692,0.916-0.791,1.44C225.075,2.039,225.674,2.09,225.744,1.714L225.744,1.714z"/>
		<path fill="none" d="M226.486,1.478c0.166-0.292,0.531-0.921,0.781-1.087"/>
		<path d="M226.732,1.65c0.201-0.353,0.406-0.773,0.729-1.03c0.304-0.241-0.086-0.699-0.389-0.458
			c-0.367,0.292-0.604,0.744-0.835,1.146C226.049,1.639,226.539,1.986,226.732,1.65L226.732,1.65z"/>
		<path fill="none" d="M227.57,1.145c0.125-0.208,0.291-0.542,0.541-0.542"/>
		<path d="M227.816,1.317c0.074-0.128,0.181-0.387,0.347-0.418c0.381-0.071,0.276-0.662-0.104-0.591
			c-0.373,0.069-0.554,0.355-0.734,0.666C227.13,1.305,227.62,1.651,227.816,1.317L227.816,1.317z"/>
		<path fill="none" d="M229.736,0.645c0.416,0.125,0.875,0.083,1.291,0.167c0.209,0.042,0.459,0.042,0.625,0.125
			c0.168,0.083,0.168,0.042,0.084,0.208c-0.125,0.167-0.334,0.292-0.541,0.417c-0.25,0.167-0.5,0.333-0.75,0.458
			c-0.418,0.208-0.834,0.375-1.209,0.625c-0.791,0.5-1.666,0.833-2.416,1.417c-0.5,0.375-1,0.667-1.584,0.958
			c-0.541,0.25-1.084,0.542-1.584,0.792c-0.625,0.292-1.166,0.625-1.75,1c-0.564,0.359-1.075,0.886-1.666,1.191
			c-0.49,0.253-1.022,0.377-1.48,0.72c-0.279,0.208-0.46,0.479-0.759,0.665c-0.796,0.494-1.662,0.802-2.386,1.424
			c-0.418,0.359-0.779,0.775-1.217,1.115c-0.459,0.354-1.008,0.626-1.439,1.008c-0.88,0.772-1.59,1.618-2.594,2.281
			c-0.729,0.481-1.37,1.079-2.01,1.667c-0.553,0.508-1.205,1.022-1.699,1.596"/>
		<path d="M229.709,0.943c0.109,0.021,1.521,0.243,1.357,0.347c-0.517,0.329-1.026,0.589-1.57,0.856
			c-1.252,0.613-2.393,1.411-3.564,2.153c-1.184,0.75-2.522,1.242-3.726,1.967c-0.465,0.279-0.896,0.596-1.321,0.932
			c-0.707,0.558-1.507,0.787-2.258,1.253c-1.938,1.204-3.626,2.719-5.523,3.985c-1.211,0.81-2.16,2.002-3.362,2.852
			c-1.166,0.824-2.31,1.915-3.281,2.96c-0.26,0.28,0.125,0.742,0.39,0.458c1.901-2.047,4.238-3.667,6.301-5.544
			c0.432-0.393,0.965-0.67,1.439-1.007c0.689-0.489,1.189-1.147,1.915-1.609c0.519-0.33,1.091-0.58,1.622-0.888
			c0.535-0.311,0.904-0.789,1.486-1.058c1.201-0.555,2.146-1.367,3.279-2.051c1.19-0.718,2.504-1.206,3.682-1.951
			c1.172-0.743,2.336-1.497,3.586-2.11c0.623-0.306,1.645-0.676,1.91-1.376c0.045-0.114,0.008-0.288-0.108-0.351
			c-0.659-0.354-1.478-0.282-2.194-0.418C229.385,0.274,229.332,0.873,229.709,0.943L229.709,0.943z"/>
		<path fill="none" d="M220.445,5.395c0.375,0.208,0.957,0.292,1.375,0.375c0.416,0.042,0.99,0.208,1.406,0.208"/>
		<path d="M220.341,5.675c0.41,0.202,0.86,0.281,1.308,0.365c0.508,0.095,1.033,0.215,1.551,0.236
			c0.386,0.015,0.443-0.582,0.057-0.599c-0.427-0.017-0.842-0.121-1.262-0.189c-0.493-0.08-0.991-0.153-1.443-0.375
			C220.201,4.942,219.998,5.506,220.341,5.675L220.341,5.675z"/>
		<path fill="none" d="M221.57,4.812c0.332,0.167,0.75,0.208,1.125,0.333c0.457,0.125,1.094,0.261,1.594,0.261"/>
		<path d="M221.466,5.092c0.827,0.361,1.896,0.586,2.796,0.611c0.385,0.011,0.442-0.586,0.057-0.598
			c-0.86-0.024-1.853-0.231-2.644-0.576C221.318,4.375,221.113,4.939,221.466,5.092L221.466,5.092z"/>
		<path fill="none" d="M222.402,4.103c0.459,0.333,1.084,0.333,1.584,0.458c0.416,0.083,1.264,0.069,1.639,0.152"/>
		<path d="M222.23,4.349c1.004,0.628,2.25,0.467,3.365,0.665c0.383,0.067,0.436-0.53,0.057-0.599c-0.991-0.176-2.186,0-3.077-0.559
			C222.248,3.652,221.902,4.143,222.23,4.349L222.23,4.349z"/>
		<path fill="none" d="M223.445,3.52c1.041,0.292,2.244,0.458,3.328,0.458"/>
		<path d="M223.341,3.8c1.114,0.301,2.25,0.464,3.404,0.477c0.385,0.004,0.442-0.593,0.058-0.599
			c-1.103-0.012-2.188-0.154-3.253-0.44C223.178,3.138,222.968,3.701,223.341,3.8L223.341,3.8z"/>
		<path fill="none" d="M224.863,2.852c0.291,0.125,0.666,0.125,0.957,0.208"/>
		<path d="M224.759,3.132c0.314,0.11,0.638,0.134,0.958,0.208c0.373,0.087,0.584-0.474,0.209-0.562
			c-0.318-0.075-0.648-0.102-0.958-0.208C224.602,2.443,224.395,3.005,224.759,3.132L224.759,3.132z"/>
		<path fill="none" d="M226.07,2.27c0.5,0.25,1,0.458,1.582,0.542c0.334,0.042,0.75,0,1.084,0.125"/>
		<path d="M225.966,2.55c0.412,0.202,0.832,0.388,1.282,0.486c0.456,0.1,0.939,0.047,1.385,0.181c0.37,0.11,0.579-0.451,0.209-0.562
			c-0.383-0.114-0.767-0.106-1.16-0.143c-0.524-0.049-1.039-0.296-1.507-0.524C225.826,1.818,225.622,2.381,225.966,2.55
			L225.966,2.55z"/>
		<path fill="none" d="M227.152,1.853c0.375,0.167,0.75,0.375,1.125,0.5s0.75,0.125,1.084,0.167"/>
		<path d="M227.049,2.133c0.374,0.172,0.738,0.36,1.125,0.5c0.369,0.135,0.774,0.144,1.16,0.185
			c0.387,0.041,0.439-0.558,0.057-0.599c-0.4-0.042-0.785-0.067-1.168-0.208c-0.332-0.119-0.646-0.295-0.965-0.44
			C226.904,1.41,226.7,1.975,227.049,2.133L227.049,2.133z"/>
		<path fill="none" d="M228.027,1.353c0.168,0.417,0.793,0.333,1.125,0.417c0.459,0.083,0.875,0.167,1.293,0.167"/>
		<path d="M227.757,1.482c0.187,0.344,0.479,0.461,0.854,0.521c0.595,0.096,1.203,0.216,1.806,0.232
			c0.386,0.01,0.442-0.587,0.058-0.599c-0.438-0.012-0.863-0.088-1.293-0.167c-0.246-0.045-0.744,0.01-0.882-0.246
			C228.116,0.885,227.573,1.141,227.757,1.482L227.757,1.482z"/>
		<path fill="none" d="M229.111,1.103c0.166,0.125,0.459,0.125,0.666,0.208c0.375,0.125,0.668,0.167,1.043,0.25"/>
		<path d="M228.939,1.349c0.547,0.298,1.246,0.382,1.853,0.512c0.379,0.081,0.431-0.519,0.058-0.598
			c-0.479-0.103-1.127-0.168-1.564-0.405C228.948,0.673,228.602,1.164,228.939,1.349L228.939,1.349z"/>
		<path fill="none" d="M191.695,29.353c0,0.358,2.628-0.114,2.894-0.146c2.228-0.271,3.835-1.879,5.379-3.354
			c1.15-1.1,2.058-2.345,3.288-3.367c0.928-0.771,1.684-1.965,2.377-2.945"/>
		<path d="M191.424,29.482c0.338,0.566,1.45,0.267,1.967,0.204c1.4-0.169,2.664-0.441,3.895-1.179
			c1.516-0.907,2.843-2.317,4.02-3.617c1.586-1.75,3.213-3.233,4.575-5.179c0.222-0.316-0.271-0.661-0.491-0.344
			c-1.85,2.642-4.258,5.007-6.621,7.207c-1.244,1.159-2.604,2.101-4.32,2.349c-0.321,0.048-2.37,0.483-2.479,0.301
			C191.771,28.895,191.227,29.148,191.424,29.482L191.424,29.482z"/>
		<path fill="none" d="M194.133,28.208c0.146,0.042,0.333-0.021,0.479-0.021c0.146-0.021,0.291-0.021,0.416-0.042
			c0.312-0.021,0.604-0.083,0.896-0.125c0.25-0.021,0.5-0.042,0.75-0.083c0.166-0.021,0.333-0.042,0.5-0.062
			c0.125-0.042,0.25-0.062,0.375-0.125"/>
		<path d="M194.104,28.505c0.537,0.044,1.125-0.069,1.653-0.156c0.646-0.105,1.302-0.098,1.921-0.33
			c0.362-0.137,0.104-0.678-0.258-0.542c-0.559,0.209-1.184,0.189-1.768,0.28c-0.476,0.074-1.01,0.19-1.492,0.15
			C193.775,27.875,193.719,28.474,194.104,28.505L194.104,28.505z"/>
		<path fill="none" d="M195.445,27.166c0.312,0,0.625-0.083,0.938-0.104c0.292-0.021,0.583,0,0.875-0.042
			c0.146-0.021,0.292-0.062,0.417-0.083c0.166-0.021,0.333-0.021,0.5-0.042c0.229-0.042,0.479-0.104,0.688-0.188"/>
		<path d="M195.497,27.46c1.142-0.064,2.407-0.106,3.494-0.481c0.364-0.126,0.104-0.667-0.259-0.542
			c-1.019,0.352-2.267,0.373-3.34,0.434C195.008,26.892,195.116,27.482,195.497,27.46L195.497,27.46z"/>
		<path fill="none" d="M197.466,25.874c0.062,0,0.146,0,0.209-0.021c0.146-0.021,0.291,0.021,0.438,0.021
			c0.291,0,0.541-0.062,0.812-0.083c0.271-0.021,0.541-0.125,0.812-0.146c0.125-0.021,0.25-0.062,0.396-0.062"/>
		<path d="M197.438,26.172c0.408-0.01,0.812,0.008,1.221-0.048c0.51-0.068,1.017-0.204,1.527-0.247
			c0.385-0.032,0.277-0.623-0.104-0.591c-0.408,0.034-0.804,0.155-1.208,0.208c-0.463,0.061-0.916,0.068-1.379,0.08
			C197.111,25.584,197.052,26.183,197.438,26.172L197.438,26.172z"/>
		<path fill="none" d="M195.883,24.541c0.041-0.042,0.104-0.042,0.146-0.042c0.166,0,0.332,0,0.479-0.021
			c0.188-0.021,0.375-0.042,0.541-0.062c0.146-0.021,0.312-0.042,0.459-0.042"/>
		<path d="M196.012,24.812c0.127-0.063,0.401-0.024,0.549-0.038c0.307-0.03,0.611-0.088,0.92-0.102
			c0.381-0.016,0.44-0.612,0.057-0.598c-0.301,0.012-0.596,0.052-0.895,0.086c-0.283,0.032-0.629-0.021-0.889,0.108
			C195.409,24.442,195.665,24.985,196.012,24.812L196.012,24.812z"/>
		<path fill="none" d="M197.152,23.291c0.125,0.021,0.293-0.042,0.396-0.062c0.146-0.021,0.292-0.021,0.459-0.021
			c0.166,0,0.333,0,0.5,0c0.146,0,0.271-0.062,0.416-0.062"/>
		<path d="M197.125,23.588c0.29-0.005,0.562-0.082,0.854-0.083c0.345-0.002,0.658-0.026,0.996-0.065
			c0.385-0.044,0.278-0.635-0.104-0.591c-0.282,0.032-0.551,0.059-0.836,0.059c-0.291,0-0.57,0.079-0.854,0.083
			C196.799,22.998,196.739,23.595,197.125,23.588L197.125,23.588z"/>
		<path fill="none" d="M200.883,19.687c0.125,0.062,0.291,0.042,0.416,0.042c0.229,0.021,0.459,0,0.688,0.021
			c0.396,0.042,0.793,0.042,1.188,0.062c0.417,0.021,0.812-0.021,1.209-0.062c0.125,0,0.229-0.021,0.333-0.042
			c0.104,0,0.229,0,0.333-0.021c0.084-0.021,0.167-0.042,0.25-0.042c0.062,0,0.146-0.021,0.209-0.021"/>
		<path d="M200.854,19.985c1.514,0.321,3.185,0.083,4.705-0.066c0.387-0.038,0.278-0.628-0.104-0.591
			c-1.473,0.146-3.083,0.37-4.545,0.059C200.532,19.307,200.48,19.906,200.854,19.985L200.854,19.985z"/>
		<path fill="none" d="M201.695,20.895c0.125,0.083,0.291,0.083,0.438,0.083s0.271,0.021,0.416,0.021
			c0.229,0,0.479-0.021,0.709-0.021c0.104,0,0.208,0.021,0.291,0c0.084,0,0.167-0.042,0.229-0.062
			c0.104-0.021,0.188-0.021,0.293-0.021c0.082-0.021,0.188-0.042,0.291-0.042"/>
		<path d="M201.591,21.175c0.835,0.36,1.956,0.047,2.822-0.026c0.386-0.033,0.278-0.624-0.104-0.591
			c-0.406,0.034-0.791,0.116-1.199,0.125c-0.4,0.007-0.932,0.094-1.311-0.069C201.443,20.458,201.236,21.023,201.591,21.175
			L201.591,21.175z"/>
		<path fill="none" d="M200.966,22.082c0.271,0,0.562,0,0.833,0.042c0.229,0.021,0.438-0.021,0.646-0.042
			c0.207-0.021,0.396,0.021,0.582-0.021c0.146-0.021,0.271-0.021,0.396-0.062"/>
		<path d="M200.938,22.38c0.84,0.001,1.711,0.111,2.539-0.086c0.375-0.089,0.271-0.681-0.104-0.591
			c-0.771,0.185-1.597,0.081-2.378,0.08C200.609,21.783,200.551,22.379,200.938,22.38L200.938,22.38z"/>
		<path fill="none" d="M199.695,20.707c0.291,0.125,0.688,0.146,1,0.146"/>
		<path d="M199.591,20.988c0.351,0.127,0.706,0.159,1.076,0.164c0.385,0.004,0.442-0.593,0.058-0.599
			c-0.316-0.003-0.625-0.02-0.925-0.128C199.436,20.292,199.229,20.856,199.591,20.988L199.591,20.988z"/>
		<path fill="none" d="M199.383,24.228c0.208,0,0.416,0.042,0.625,0.042c0.188,0,0.354,0.021,0.541,0.021
			c0.354,0,0.688-0.104,1.042-0.104"/>
		<path d="M199.354,24.527c0.39,0.016,0.776,0.051,1.166,0.062c0.377,0.012,0.748-0.091,1.123-0.106
			c0.385-0.018,0.276-0.607-0.104-0.591c-0.386,0.017-0.759,0.106-1.144,0.095c-0.33-0.01-0.656-0.043-0.984-0.058
			C199.025,23.913,198.968,24.51,199.354,24.527L199.354,24.527z"/>
		<path fill="none" d="M206.652,18.478c-0.104,0-0.957,0.021-1.248,0.021c-0.125,0-0.271-0.021-0.396,0
			c-0.146,0.021-0.292,0.021-0.438,0.042c-0.146,0.021-0.293-0.021-0.438-0.021c-0.104,0.021-0.229,0.042-0.354,0.042"/>
		<path d="M206.682,18.178c-0.986,0.011-1.975,0.019-2.953,0.088c-0.387,0.026-0.278,0.617,0.104,0.591
			c0.928-0.065,1.863-0.071,2.794-0.08C207.009,18.773,207.066,18.174,206.682,18.178L206.682,18.178z"/>
		<path fill="none" d="M205.55,17.624c0.062,0,0.125,0,0.188,0c0.146,0,0.291,0,0.459,0c0.188-0.021,0.396-0.042,0.582-0.083
			c0.188-0.042,0.731-0.035,0.92-0.077"/>
		<path d="M205.521,17.922c0.731,0,1.504-0.044,2.229-0.164c0.382-0.062,0.277-0.653-0.104-0.591
			c-0.668,0.11-1.396,0.157-2.068,0.157C205.193,17.325,205.135,17.922,205.521,17.922L205.521,17.922z"/>
		<path fill="none" d="M206.154,16.708c0.207,0,0.416,0.021,0.562-0.021c0.208-0.042,0.396-0.062,0.583-0.083
			c0.209-0.021,0.438-0.062,0.646-0.062c0.082,0,0.188,0,0.271,0c0.104-0.021,0.229-0.062,0.333-0.062"/>
		<path d="M206.126,17.005c0.812,0.014,1.675-0.119,2.476-0.232c0.385-0.055,0.278-0.646-0.104-0.591
			c-0.744,0.104-1.564,0.238-2.314,0.226C205.798,16.402,205.739,17,206.126,17.005L206.126,17.005z"/>
		<path fill="none" d="M208.111,15.645c0.104-0.021,0.209,0.021,0.334,0.021s0.25-0.042,0.396-0.042s0.292-0.042,0.417-0.062
			c0.166-0.021,0.604-0.068,0.749-0.13"/>
		<path d="M208.084,15.944c0.671,0.01,1.407-0.03,2.053-0.242c0.366-0.12,0.105-0.661-0.258-0.542
			c-0.527,0.173-1.191,0.194-1.738,0.186C207.756,15.339,207.697,15.938,208.084,15.944L208.084,15.944z"/>
		<path fill="none" d="M208.134,14.499c0.041,0.021,0.083,0.021,0.125,0.021c0.125,0,0.25,0.021,0.375,0.021
			c0.291,0,0.583-0.042,0.875-0.042c0.583,0,1.146-0.042,1.688-0.188"/>
		<path d="M208.105,14.797c0.524,0.088,1.062,0.003,1.593-0.002c0.524-0.005,1.041-0.063,1.55-0.188
			c0.374-0.091,0.271-0.684-0.104-0.591c-0.533,0.13-1.061,0.179-1.607,0.184c-0.46,0.004-0.918,0.077-1.375,0
			C207.779,14.135,207.727,14.734,208.105,14.797L208.105,14.797z"/>
		<path fill="none" d="M210.486,13.499c0.084-0.021,0.209,0.021,0.293,0.021c0.125,0,0.229,0,0.354,0
			c0.229,0,0.458-0.062,0.666-0.104c0.146-0.021,0.312-0.083,0.479-0.083"/>
		<path d="M210.459,13.797c0.301,0.005,0.596,0.025,0.898,0.008c0.328-0.021,0.646-0.145,0.974-0.178
			c0.386-0.04,0.278-0.63-0.104-0.591c-0.271,0.028-0.537,0.096-0.805,0.151c-0.304,0.062-0.604,0.018-0.906,0.012
			C210.131,13.193,210.072,13.791,210.459,13.797L210.459,13.797z"/>
		<path fill="none" d="M211.529,12.52c0.104,0.042,0.25,0.021,0.354,0c0.166-0.021,0.333-0.021,0.5-0.021
			c0.333,0,0.666-0.062,1-0.062"/>
		<path d="M211.501,12.819c0.276,0.055,0.573-0.021,0.854-0.021c0.334-0.001,0.666-0.053,1-0.062
			c0.383-0.011,0.441-0.608,0.057-0.598c-0.334,0.009-0.666,0.053-1,0.062c-0.27,0.007-0.596,0.073-0.854,0.021
			C211.178,12.146,211.126,12.744,211.501,12.819L211.501,12.819z"/>
		<path fill="none" d="M212.05,11.437c0.271,0,0.542,0.021,0.812,0.021c0.125,0,0.229,0.021,0.354,0.021s0.271-0.021,0.396-0.042
			c0.25-0.021,0.521-0.042,0.771-0.083c0.125,0,0.229-0.021,0.354-0.021"/>
		<path d="M212.021,11.735c0.457,0.007,0.92,0.053,1.377,0.032c0.465-0.022,0.927-0.113,1.391-0.141
			c0.386-0.021,0.277-0.612-0.104-0.591c-0.418,0.024-0.844,0.062-1.256,0.124c-0.433,0.066-0.916-0.016-1.353-0.023
			C211.693,11.13,211.635,11.729,212.021,11.735L212.021,11.735z"/>
		<path fill="none" d="M216.367,10.228c-0.221-0.02-0.68,0.082-0.9,0.104c-0.25,0.025-0.512,0.01-0.771,0.042"/>
		<path d="M216.396,9.928c-0.572-0.012-1.182,0.102-1.752,0.149c-0.386,0.033-0.277,0.624,0.104,0.591
			c0.511-0.044,1.08-0.152,1.591-0.143C216.725,10.535,216.782,9.937,216.396,9.928L216.396,9.928z"/>
		<path fill="none" d="M215.342,9.27c0.292,0,1.125,0.042,1.375,0.021c0.229-0.021,0.458-0.062,0.688-0.083
			c0.188-0.021,0.375,0,0.562,0"/>
		<path d="M215.312,9.568c0.365,0.003,0.73,0.021,1.097,0.025c0.514,0.008,1.014-0.102,1.528-0.089
			c0.387,0.01,0.443-0.588,0.058-0.598c-0.479-0.012-0.94,0.081-1.418,0.089c-0.402,0.007-0.806-0.022-1.207-0.027
			C214.984,8.966,214.928,9.564,215.312,9.568L215.312,9.568z"/>
		<path fill="none" d="M217.736,8.457c0.168,0.042,0.334,0,0.479,0c0.125,0,0.25,0,0.354,0c0.125,0,0.451-0.021,0.576-0.021"/>
		<path d="M217.709,8.755c0.463,0.053,0.945-0.01,1.411-0.021c0.383-0.009,0.442-0.606,0.058-0.599
			c-0.465,0.011-0.951,0.072-1.412,0.021C217.38,8.115,217.325,8.712,217.709,8.755L217.709,8.755z"/>
		<path fill="none" d="M218.3,7.332c0.125,0.021,0.229,0.042,0.334,0.083c0.166,0.042,0.354,0.042,0.521,0.083
			c0.293,0.062,1.119,0.125,1.433,0.125"/>
		<path d="M218.271,7.63c0.761,0.148,1.506,0.281,2.285,0.292c0.385,0.005,0.443-0.592,0.058-0.598
			c-0.78-0.01-1.524-0.144-2.286-0.292C217.947,6.958,217.896,7.558,218.271,7.63L218.271,7.63z"/>
		<path fill="none" d="M219.445,6.332c0.043,0.083,0.293,0.083,0.354,0.104c0.229,0.042,0.44,0.145,0.646,0.208
			c0.494,0.151,0.959,0.208,1.438,0.208"/>
		<path d="M219.273,6.578c0.271,0.205,0.746,0.238,1.067,0.348c0.483,0.166,1.007,0.219,1.515,0.227
			c0.385,0.006,0.442-0.592,0.057-0.599c-0.467-0.007-0.911-0.062-1.361-0.19c-0.162-0.046-0.318-0.114-0.478-0.167
			c-0.104-0.035-0.363-0.041-0.455-0.11C219.309,5.853,218.966,6.344,219.273,6.578L219.273,6.578z"/>
		<path fill="none" d="M197.243,13.837c-0.031,0.281-0.173,0.452-0.267,0.671c-0.125,0.312-0.25,0.625-0.345,0.938
			c-0.094,0.312-0.125,0.656-0.155,0.938c-0.031,0.345-0.125,0.688-0.125,1.031c-0.031,0.594-0.062,1.219,0,1.812
			c0.03,0.28,0.094,0.562,0.125,0.844c0.03,0.282,0.188,0.562,0.155,0.844c0-0.031,0-0.031,0.031-0.062"/>
		<path d="M196.962,13.734c-0.39,1.271-0.774,2.3-0.909,3.652c-0.121,1.24,0.127,2.364,0.284,3.581
			c0.043,0.324,0.455,0.297,0.577,0.053c0.011-0.021,0.021-0.042,0.031-0.062c0.174-0.346-0.393-0.55-0.562-0.208
			c-0.011,0.021-0.021,0.042-0.031,0.062c0.192,0.017,0.385,0.035,0.578,0.052c-0.152-1.164-0.338-2.23-0.279-3.419
			c0.062-1.264,0.514-2.322,0.875-3.501C197.639,13.573,197.075,13.364,196.962,13.734L196.962,13.734z"/>
		<path fill="none" d="M195.57,15.226c-0.188,0.405-0.312,0.782-0.375,1.188c-0.062,0.625-0.125,1.25-0.094,1.875l0.03-0.031"/>
		<path d="M195.289,15.122c-0.438,0.993-0.521,2.063-0.486,3.14c0.008,0.231,0.283,0.468,0.493,0.258
			c0.011-0.012,0.021-0.021,0.031-0.031c0.271-0.271-0.114-0.732-0.39-0.458c-0.01,0.011-0.021,0.021-0.03,0.031
			c0.163,0.086,0.329,0.171,0.493,0.257c-0.033-1.022,0.035-2.045,0.451-2.989C196.008,14.975,195.443,14.77,195.289,15.122
			L195.289,15.122z"/>
		<path fill="none" d="M194.463,16.336c-0.062,0.156-0.115,0.25-0.115,0.406c0,0.25-0.062,0.531-0.062,0.781
			c0,0.312-0.031,0.656,0,0.969c0,0.094,0.021,0.291,0.062,0.406"/>
		<path d="M194.182,16.233c-0.162,0.395-0.178,0.839-0.195,1.263c-0.021,0.479-0.053,0.988,0.064,1.456
			c0.096,0.373,0.688,0.271,0.592-0.104c-0.095-0.372-0.072-0.756-0.062-1.137c0.012-0.413,0.004-0.886,0.163-1.271
			C194.893,16.083,194.329,15.876,194.182,16.233L194.182,16.233z"/>
		<path fill="none" d="M192.699,17.898c-0.062,0.125-0.031,0.312-0.031,0.438c0,0.22,0,1.158,0.031,1.376"/>
		<path d="M192.418,17.793c-0.148,0.585-0.08,1.371-0.016,1.971c0.043,0.385,0.635,0.277,0.593-0.104
			c-0.029-0.258-0.022-0.521-0.026-0.78c-0.003-0.268-0.054-0.62,0.012-0.878C193.075,17.63,192.514,17.419,192.418,17.793
			L192.418,17.793z"/>
		<path fill="none" d="M191.312,19.581c0,0.219,0.03,0.438,0,0.656c-0.031,0.25,0,0.469,0,0.75c0,0.312,0.062,0.594,0.094,0.906
			c0,0.125,0,0.405,0.094,0.469"/>
		<path d="M191.014,19.552c0.018,0.557-0.043,1.115,0.01,1.672c0.041,0.423,0.008,0.97,0.248,1.333
			c0.213,0.321,0.668-0.069,0.457-0.39c-0.058-0.085-0.016-0.227-0.026-0.327c-0.033-0.274-0.081-0.548-0.091-0.825
			c-0.019-0.471,0.015-0.937,0-1.406C191.6,19.228,191.001,19.167,191.014,19.552L191.014,19.552z"/>
		<path fill="none" d="M190.57,20.916c-0.062,0.188-0.031,0.469-0.062,0.688c-0.031,0.312,0.031,0.625,0.094,0.938
			c0.062,0.375,0.188,0.75,0.219,1.125c0.031,0.094,0.062,0.5,0.095,0.5"/>
		<path d="M190.271,20.886c-0.133,0.648-0.047,1.29,0.078,1.932c0.088,0.454,0.106,1.049,0.293,1.477
			c0.154,0.354,0.696,0.098,0.543-0.258c-0.164-0.374-0.153-0.923-0.246-1.323c-0.131-0.577-0.189-1.185-0.07-1.77
			C190.945,20.564,190.348,20.513,190.271,20.886L190.271,20.886z"/>
		<path fill="none" d="M196.195,14.758c0,0.156-0.094,0.156-0.125,0.281c-0.031,0.188-0.125,0.344-0.156,0.531
			c-0.031,0.219-0.094,0.438-0.094,0.688c0,0.062,0,0.156,0,0.22"/>
		<path d="M195.896,14.731c-0.055,0.241-0.203,0.486-0.265,0.736c-0.079,0.323-0.11,0.65-0.11,0.982
			c0,0.384,0.598,0.443,0.598,0.057c0-0.328,0.031-0.646,0.109-0.966c0.064-0.266,0.207-0.489,0.266-0.752
			C196.578,14.41,195.979,14.359,195.896,14.731L195.896,14.731z"/>
		<path fill="none" d="M191.977,23.791c-0.031,0.219,0.062,0.5,0.125,0.719c0.031,0.125,0.062,0.281,0.062,0.406
			c0,0.094,0,0.188,0,0.281c0.031,0.094,0.094,0.188,0.094,0.281h0.031c0,0.03,0.031,0.062,0.031,0.094"/>
		<path d="M191.678,23.761c-0.01,0.281,0.051,0.531,0.129,0.8c0.092,0.315,0.075,0.646,0.155,0.969
			c0.03,0.121,0.129,0.247,0.269,0.247c0.011,0,0.021,0,0.031,0c-0.082-0.058-0.162-0.113-0.244-0.17
			c0.012,0.031,0.021,0.062,0.031,0.094c0.122,0.366,0.663,0.105,0.543-0.258c-0.011-0.031-0.021-0.062-0.031-0.094
			c-0.029-0.09-0.149-0.171-0.242-0.171c-0.012,0-0.021,0-0.031,0c0.089,0.083,0.178,0.165,0.268,0.247
			c-0.061-0.238-0.086-0.449-0.104-0.694c-0.021-0.313-0.188-0.592-0.176-0.912C192.289,23.433,191.691,23.375,191.678,23.761
			L191.678,23.761z"/>
		<path fill="none" d="M195.227,20.822c-0.062,0.125,0,0.281,0.031,0.406c0.031,0.155,0.031,0.312,0.062,0.438
			c0.031,0.156,0.031,0.344,0.094,0.469c0,0.031,0,0.062,0,0.095"/>
		<path d="M194.928,20.792c-0.093,0.464,0.188,0.944,0.188,1.406c0,0.384,0.598,0.443,0.598,0.057c0-0.446-0.276-0.963-0.188-1.405
			C195.602,20.469,195.003,20.417,194.928,20.792L194.928,20.792z"/>
		<path fill="none" d="M193.977,20.383c0,0.25,0.094,0.438,0.125,0.688c0,0.062-0.031,0.125,0.031,0.188"/>
		<path d="M193.682,20.437c0.021,0.3,0.064,0.674,0.18,0.952c0.15,0.356,0.691,0.099,0.543-0.259
			c-0.088-0.209-0.115-0.568-0.131-0.798C194.245,19.946,193.654,20.055,193.682,20.437L193.682,20.437z"/>
		<path fill="none" d="M193.461,17.197c0,0.156-0.047,0.531-0.047,0.656c0,0.25,0.031,0.469,0.031,0.719s0.014,0.877,0.094,1.141"/>
		<path d="M193.162,17.167c-0.031,0.841-0.123,1.77,0.081,2.597c0.093,0.374,0.685,0.271,0.592-0.104
			c-0.192-0.776-0.104-1.646-0.075-2.435C193.773,16.838,193.177,16.782,193.162,17.167L193.162,17.167z"/>
		<path fill="none" d="M190.414,25.853c0,0.125,0.031,0.25,0.062,0.375c0.03,0.125,0,0.28,0.03,0.438
			c0.031,0.157,0.095,0.312,0.095,0.5c0,0.062,0.03,0.188,0.062,0.219"/>
		<path d="M190.118,25.905c0.053,0.505,0.067,1.139,0.274,1.608c0.155,0.354,0.697,0.097,0.543-0.259
			c-0.18-0.403-0.182-1.015-0.227-1.455C190.669,25.416,190.079,25.522,190.118,25.905L190.118,25.905z"/>
		<path fill="none" d="M191.133,25.166c0,0.125,0.062,0.25,0.062,0.344c0,0.125,0,0.25,0.031,0.375
			c0.03,0.156,0.125,0.345,0.188,0.5"/>
		<path d="M190.837,25.217c0.062,0.461,0.125,0.864,0.306,1.296c0.15,0.355,0.692,0.099,0.543-0.259
			c-0.154-0.369-0.205-0.748-0.256-1.142C191.378,24.73,190.787,24.834,190.837,25.217L190.837,25.217z"/>
		<path fill="none" d="M193.164,23.383c0,0.345,0.125,0.595,0.219,0.875"/>
		<path d="M192.868,23.437c0.021,0.338,0.132,0.634,0.243,0.952c0.129,0.363,0.67,0.104,0.543-0.259
			c-0.094-0.267-0.178-0.514-0.194-0.798C193.438,22.946,192.846,23.055,192.868,23.437L192.868,23.437z"/>
		<path fill="none" d="M192.789,21.822c0.062,0.062,0.062,0.188,0.094,0.281c0.031,0.062,0.031,0.125,0.031,0.188"/>
		<path d="M192.518,21.951c0.064,0.114,0.096,0.263,0.102,0.392c0.018,0.386,0.607,0.276,0.592-0.104
			c-0.008-0.179-0.062-0.389-0.148-0.545C192.871,21.358,192.327,21.613,192.518,21.951L192.518,21.951z"/>
		<path fill="none" d="M194.227,22.541c0.031,0.156,0.062,0.375,0.156,0.531"/>
		<path d="M193.932,22.592c0.041,0.213,0.088,0.412,0.18,0.608c0.166,0.35,0.707,0.093,0.543-0.258
			c-0.071-0.152-0.1-0.292-0.131-0.455C194.449,22.109,193.857,22.211,193.932,22.592L193.932,22.592z"/>
		<path fill="none" d="M201.352,23.166c0.125,0,0.219,0,0.344,0s0.25,0,0.375-0.031c0.095,0,0.22-0.03,0.312,0.031"/>
		<path d="M201.323,23.463c0.26,0,0.714-0.103,0.954-0.018c0.367,0.129,0.574-0.435,0.209-0.562
			c-0.348-0.123-0.745-0.018-1.106-0.018C200.996,22.867,200.938,23.463,201.323,23.463L201.323,23.463z"/>
		<path fill="none" d="M199.789,23.072c0.125,0,0.312-0.031,0.406,0.031"/>
		<path d="M199.841,23.367c0.084,0.006,0.167,0.012,0.25,0.017c0.37,0.111,0.579-0.45,0.209-0.562
			c-0.192-0.058-0.362-0.054-0.562-0.045C199.352,22.792,199.461,23.382,199.841,23.367L199.841,23.367z"/>
		<path fill="none" d="M194.508,26.133c0.219,0,0.406-0.03,0.594-0.062c0.156,0,0.281-0.031,0.438-0.031
			c0.125,0,0.344,0.031,0.5-0.031"/>
		<path d="M194.479,26.433c0.276-0.01,0.547-0.06,0.822-0.074c0.262-0.015,0.533,0.009,0.789-0.054
			c0.374-0.093,0.271-0.685-0.104-0.592c-0.211,0.053-0.434,0.027-0.648,0.04c-0.27,0.016-0.533,0.073-0.803,0.082
			C194.154,25.849,194.094,26.446,194.479,26.433L194.479,26.433z"/>
		<path fill="none" d="M192.602,28.291c0.156,0.031,0.281-0.062,0.438-0.094c0.062,0,0.125,0,0.188,0"/>
		<path d="M192.573,28.588c0.211-0.005,0.42-0.094,0.625-0.094c0.384,0,0.442-0.598,0.057-0.598c-0.223,0-0.409,0.089-0.625,0.094
			C192.247,28,192.188,28.598,192.573,28.588L192.573,28.588z"/>
		<path fill="none" d="M199.195,22.008c0.25,0.095,0.562,0.031,0.781,0.031"/>
		<path d="M199.091,22.291c0.294,0.074,0.558,0.062,0.857,0.049c0.381-0.016,0.44-0.612,0.057-0.598
			c-0.235,0.01-0.474,0.044-0.705-0.014C198.928,21.633,198.717,22.197,199.091,22.291L199.091,22.291z"/>
		<path fill="none" d="M200.977,11.228c-0.188,0.344-0.281,0.655-0.438,1c-0.094,0.219-0.25,0.438-0.312,0.688
			c-0.094,0.188-0.188,0.406-0.281,0.625c-0.188,0.469-0.405,0.906-0.53,1.406c-0.062,0.25-0.095,0.5-0.156,0.781
			c-0.03,0.125-0.062,0.219-0.094,0.344c0,0.094-0.062,0.281-0.031,0.344"/>
		<path d="M200.695,11.124c-0.766,1.583-1.817,3.466-1.861,5.263c-0.01,0.386,0.588,0.443,0.598,0.058
			c0.043-1.732,1.086-3.579,1.826-5.112C201.427,10.983,200.861,10.779,200.695,11.124L200.695,11.124z"/>
		<path fill="none" d="M202.164,10.197c-0.406,0.5-0.5,1.219-0.688,1.812c-0.22,0.688-0.406,1.375-0.406,2.095
			c0-0.031,0-0.031,0.031-0.062"/>
		<path d="M201.918,10.025c-0.4,0.569-0.529,1.221-0.723,1.88c-0.213,0.722-0.399,1.413-0.424,2.169
			c-0.012,0.354,0.43,0.433,0.58,0.132c0.01-0.021,0.021-0.042,0.03-0.062c0.175-0.347-0.392-0.551-0.562-0.208
			c-0.012,0.021-0.021,0.042-0.031,0.062c0.193,0.044,0.387,0.088,0.58,0.132c0.021-0.697,0.182-1.354,0.389-2.018
			c0.188-0.604,0.28-1.216,0.652-1.745C202.633,10.051,202.141,9.708,201.918,10.025L201.918,10.025z"/>
		<path fill="none" d="M204.727,8.572c0,0.219-0.219,0.469-0.312,0.656c-0.095,0.28-0.188,0.594-0.281,0.875
			c-0.094,0.312-0.188,0.594-0.25,0.905c-0.03,0.188-0.125,0.562-0.094,0.688"/>
		<path d="M204.428,8.542c-0.056,0.263-0.279,0.531-0.365,0.796c-0.119,0.369-0.235,0.74-0.348,1.112
			c-0.123,0.41-0.242,0.867-0.222,1.297c0.021,0.386,0.61,0.277,0.592-0.104c-0.028-0.54,0.235-1.151,0.399-1.653
			c0.154-0.474,0.438-0.909,0.541-1.391C205.105,8.22,204.507,8.169,204.428,8.542L204.428,8.542z"/>
		<path fill="none" d="M198.82,17.478c-0.125,0.219-0.125,0.405-0.188,0.625c-0.062,0.344-0.094,0.719-0.094,1.062"/>
		<path d="M198.539,17.374c-0.248,0.539-0.29,1.178-0.299,1.763c-0.006,0.386,0.592,0.443,0.598,0.058
			c0.008-0.536,0.037-1.118,0.264-1.612C199.264,17.23,198.699,17.025,198.539,17.374L198.539,17.374z"/>
		<path fill="none" d="M199.852,17.025c-0.094,0.344-0.016,0.983-0.016,1.172"/>
		<path d="M199.553,16.997c-0.08,0.389-0.027,0.779-0.016,1.172c0.012,0.382,0.609,0.442,0.598,0.058
			c-0.012-0.393-0.064-0.784,0.016-1.173C200.229,16.673,199.631,16.623,199.553,16.997L199.553,16.997z"/>
		<path fill="none" d="M200.852,15.258c-0.094,0.345-0.188,0.688-0.219,1.062c0,0.188,0,0.375,0.031,0.531
			c0,0.125-0.062,0.405,0.031,0.469"/>
		<path d="M200.57,15.155c-0.118,0.435-0.238,0.871-0.235,1.325c0.002,0.271-0.065,0.729,0.089,0.971
			c0.207,0.32,0.752,0.067,0.543-0.258c-0.064-0.101-0.013-0.435-0.029-0.559c-0.057-0.423,0.086-0.867,0.195-1.271
			C201.232,14.992,200.671,14.782,200.57,15.155L200.57,15.155z"/>
		<path fill="none" d="M202.07,13.978c-0.031,0.155-0.031,0.312-0.062,0.469c0,0.125-0.031,0.469-0.031,0.656"/>
		<path d="M201.771,13.95c-0.057,0.373-0.086,0.748-0.094,1.125c-0.01,0.385,0.588,0.443,0.598,0.057
			c0.008-0.377,0.037-0.752,0.094-1.125C202.426,13.623,201.828,13.569,201.771,13.95L201.771,13.95z"/>
		<path fill="none" d="M203.102,13.916c0,0.094-0.031,0.188-0.062,0.281c-0.031,0.125-0.031,0.25-0.062,0.375
			c-0.062,0.281-0.062,0.531-0.062,0.812"/>
		<path d="M202.803,13.886c-0.068,0.498-0.186,0.962-0.188,1.47c-0.002,0.384,0.597,0.442,0.598,0.057
			c0.001-0.508,0.118-0.97,0.188-1.469C203.454,13.56,202.855,13.505,202.803,13.886L202.803,13.886z"/>
		<path fill="none" d="M203.395,9.334c-0.281,0.562-0.387,1.081-0.574,1.674c-0.094,0.375-0.155,0.75-0.312,1.095
			c-0.094,0.25-0.155,0.53-0.155,0.78c0-0.03,0-0.03,0-0.03"/>
		<path d="M203.113,9.231c-0.279,0.603-0.475,1.253-0.629,1.898c-0.137,0.581-0.396,1.125-0.433,1.727
			c0.199,0.019,0.398,0.038,0.599,0.057c0-0.01,0-0.021,0-0.031c0-0.384-0.599-0.442-0.599-0.057c0,0.01,0,0.021,0,0.031
			c0,0.38,0.575,0.447,0.599,0.057c0.031-0.545,0.273-1.046,0.396-1.574c0.15-0.646,0.35-1.297,0.628-1.898
			C203.839,9.086,203.273,8.881,203.113,9.231L203.113,9.231z"/>
		<path fill="none" d="M209.227,6.166c-0.25,0.375-0.469,0.781-0.594,1.219c-0.125,0.375-0.25,0.75-0.281,1.125
			c-0.031,0.188-0.031,0.345-0.062,0.5c0,0.095,0,0.375-0.062,0.438c0.03-0.031,0.03-0.031,0.03-0.062"/>
		<path d="M208.98,5.994c-0.354,0.552-0.58,1.111-0.773,1.736c-0.155,0.501-0.057,1.147-0.262,1.612
			c-0.148,0.335,0.318,0.515,0.527,0.276c0.053-0.062,0.073-0.125,0.084-0.206c0.047-0.385-0.551-0.438-0.599-0.057
			c0.008-0.027,0.015-0.055,0.021-0.081c0.176,0.092,0.353,0.184,0.527,0.275c0.133-0.297,0.102-0.693,0.143-1.013
			c0.103-0.782,0.397-1.54,0.822-2.2C209.682,6.013,209.189,5.667,208.98,5.994L208.98,5.994z"/>
		<path fill="none" d="M211.883,4.728c0,0.094-0.125,0.188-0.188,0.25c-0.125,0.219-0.25,0.438-0.344,0.655
			c-0.156,0.375-0.345,0.781-0.438,1.188c-0.031,0.219-0.095,0.438-0.125,0.656c0,0.125-0.031,0.25-0.031,0.375"/>
		<path d="M211.602,4.624c-0.225,0.437-0.498,0.827-0.692,1.291c-0.259,0.612-0.396,1.249-0.449,1.91
			c-0.032,0.386,0.565,0.442,0.599,0.057c0.051-0.611,0.184-1.188,0.414-1.759c0.188-0.466,0.467-0.852,0.692-1.291
			C212.341,4.488,211.775,4.285,211.602,4.624L211.602,4.624z"/>
		<path fill="none" d="M210.352,5.666c-0.094,0.312-0.281,0.594-0.375,0.875c-0.062,0.25-0.156,0.594-0.156,0.844l0.031-0.03"/>
		<path d="M210.07,5.562c-0.215,0.61-0.514,1.13-0.549,1.794c-0.015,0.242,0.295,0.455,0.492,0.257
			c0.01-0.011,0.021-0.021,0.031-0.031c0.271-0.271-0.113-0.731-0.389-0.458c-0.01,0.011-0.021,0.021-0.031,0.031
			c0.164,0.086,0.329,0.171,0.493,0.257c0.032-0.613,0.317-1.081,0.514-1.643C210.762,5.404,210.198,5.196,210.07,5.562
			L210.07,5.562z"/>
		<path fill="none" d="M212.941,4.292c-0.094,0.281-0.312,0.5-0.438,0.781c-0.156,0.344-0.277,0.714-0.344,1.125"/>
		<path d="M212.661,4.189c-0.136,0.326-0.36,0.604-0.502,0.93c-0.146,0.335-0.231,0.693-0.298,1.052
			c-0.068,0.381,0.529,0.435,0.599,0.058c0.067-0.366,0.179-0.708,0.326-1.05c0.119-0.273,0.321-0.502,0.438-0.78
			C213.372,4.039,212.809,3.833,212.661,4.189L212.661,4.189z"/>
		<path fill="none" d="M213.883,3.791c-0.062,0.156-0.219,0.344-0.312,0.531c-0.155,0.25-0.25,0.531-0.344,0.812
			c-0.094,0.312-0.125,0.625-0.188,0.938c-0.031,0.219-0.001,0.5-0.047,0.734"/>
		<path d="M213.602,3.687c-0.231,0.459-0.49,0.85-0.656,1.344c-0.19,0.567-0.18,1.163-0.252,1.748
			c-0.047,0.385,0.552,0.438,0.599,0.057c0.065-0.542,0.076-1.062,0.217-1.596c0.132-0.496,0.431-0.896,0.656-1.344
			C214.339,3.548,213.773,3.345,213.602,3.687L213.602,3.687z"/>
		<path fill="none" d="M207.914,6.853c-0.094,0.25-0.188,0.5-0.25,0.75c-0.062,0.219-0.094,0.405-0.125,0.625
			c-0.031,0.094-0.062,0.219-0.062,0.344"/>
		<path d="M207.633,6.749c-0.216,0.579-0.39,1.179-0.455,1.794c-0.041,0.386,0.557,0.44,0.598,0.058
			c0.061-0.565,0.224-1.113,0.42-1.644C208.331,6.593,207.768,6.386,207.633,6.749L207.633,6.749z"/>
		<path fill="none" d="M206.883,7.447c-0.156,0.219-0.188,0.531-0.25,0.781c-0.062,0.28-0.125,0.594-0.188,0.875
			c-0.062,0.344-0.125,0.719-0.188,1.062c0,0.219-0.062,0.562-0.062,0.719"/>
		<path d="M206.637,7.275c-0.262,0.488-0.33,1.046-0.443,1.584c-0.139,0.66-0.252,1.324-0.297,1.997
			c-0.024,0.386,0.572,0.441,0.599,0.057c0.03-0.458,0.097-0.906,0.175-1.357c0.105-0.605,0.167-1.391,0.46-1.937
			C207.311,7.282,206.82,6.934,206.637,7.275L206.637,7.275z"/>
		<path fill="none" d="M205.727,7.978c-0.094,0.344-0.156,0.688-0.25,1.062c-0.062,0.281-0.125,0.562-0.125,0.875l0.031-0.031"/>
		<path d="M205.445,7.874c-0.17,0.654-0.367,1.336-0.394,2.013c-0.009,0.24,0.294,0.458,0.493,0.258
			c0.01-0.012,0.021-0.021,0.031-0.031c0.271-0.271-0.114-0.732-0.389-0.458c-0.011,0.011-0.021,0.021-0.031,0.031
			c0.164,0.086,0.328,0.171,0.492,0.257c0.023-0.626,0.201-1.257,0.357-1.862C206.104,7.709,205.542,7.5,205.445,7.874
			L205.445,7.874z"/>
		<path fill="none" d="M204.094,13.314c0,0.155-0.023,0.508-0.023,0.664c0,0.094,0,0.438,0.062,0.5"/>
		<path d="M203.795,13.286c-0.008,0.4-0.122,0.947,0.066,1.321c0.174,0.344,0.717,0.089,0.543-0.258
			c-0.131-0.259-0.018-0.731-0.012-1.008C204.398,12.957,203.803,12.899,203.795,13.286L203.795,13.286z"/>
		<path fill="none" d="M205.195,11.697c-0.062,0.127-0.062,0.219-0.062,0.312c0,0.188-0.031,0.375-0.031,0.531
			c-0.031,0.312-0.031,0.797-0.031,1.109"/>
		<path d="M204.914,11.592c-0.221,0.599-0.143,1.396-0.143,2.029c0,0.384,0.598,0.443,0.598,0.057c0-0.282,0.002-0.564,0.013-0.848
			c0.013-0.323-0.018-0.726,0.095-1.029C205.611,11.437,205.048,11.23,204.914,11.592L204.914,11.592z"/>
		<path fill="none" d="M207.289,9.791c0.031,0.188-0.094,0.406-0.125,0.594c-0.031,0.22-0.062,0.47-0.062,0.72"/>
		<path d="M206.99,9.761c-0.006,0.435-0.176,0.867-0.188,1.312c-0.011,0.385,0.587,0.443,0.599,0.057
			c0.013-0.448,0.182-0.874,0.188-1.312C207.593,9.434,206.995,9.375,206.99,9.761L206.99,9.761z"/>
		<path fill="none" d="M208.164,10.508c-0.051,0.168-0.062,0.642-0.062,0.798"/>
		<path d="M207.865,10.481c-0.059,0.259-0.061,0.532-0.062,0.797c-0.003,0.385,0.596,0.442,0.598,0.057
			c0.002-0.265,0.004-0.538,0.062-0.797C208.549,10.161,207.949,10.109,207.865,10.481L207.865,10.481z"/>
		<path fill="none" d="M209.695,8.383c-0.062,0.156-0.062,0.375-0.062,0.562"/>
		<path d="M209.414,8.28c-0.061,0.214-0.078,0.416-0.08,0.638c-0.003,0.384,0.596,0.443,0.598,0.058
			c0.002-0.166,0-0.325,0.045-0.487C210.082,8.118,209.52,7.908,209.414,8.28L209.414,8.28z"/>
		<path fill="none" d="M210.664,8.758c-0.031,0.156-0.062,0.562-0.062,0.781"/>
		<path d="M210.365,8.731c-0.042,0.258-0.059,0.52-0.062,0.78c-0.007,0.386,0.592,0.443,0.598,0.058
			c0.006-0.261,0.021-0.523,0.062-0.781C211.025,8.405,210.428,8.352,210.365,8.731L210.365,8.731z"/>
		<path fill="none" d="M211.922,7.172c-0.062,0.125-0.07,0.336-0.102,0.461c-0.031,0.156-0.031,0.312-0.062,0.47
			c-0.062,0.25-0.047,0.469-0.047,0.75"/>
		<path d="M211.641,7.069c-0.189,0.54-0.231,1.188-0.229,1.755c0.003,0.384,0.602,0.443,0.598,0.057
			c-0.004-0.514,0.021-1.113,0.193-1.604C212.332,6.912,211.77,6.705,211.641,7.069L211.641,7.069z"/>
		<path fill="none" d="M212.912,7.654c-0.016,0.159-0.064,0.289-0.049,0.444"/>
		<path d="M212.613,7.625c-0.022,0.151-0.047,0.292-0.049,0.444c-0.006,0.385,0.59,0.443,0.598,0.057
			c0.003-0.151,0.025-0.293,0.049-0.443C213.27,7.297,212.67,7.245,212.613,7.625L212.613,7.625z"/>
		<path fill="none" d="M222.039,2.447c-0.062,0.125-0.094,0.219-0.125,0.312c-0.062,0.188-0.125,0.375-0.125,0.562"/>
		<path d="M221.758,2.342c-0.14,0.303-0.234,0.619-0.268,0.951c-0.038,0.387,0.56,0.441,0.598,0.058
			c0.027-0.283,0.115-0.543,0.232-0.8C222.482,2.198,221.918,1.994,221.758,2.342L221.758,2.342z"/>
		<path fill="none" d="M201.736,18.687c0.084,0.062,0.312,0,0.375,0c0.25-0.021,0.5-0.062,0.75-0.062"/>
		<path d="M201.632,18.967c0.373,0.116,0.821-0.03,1.201-0.045c0.382-0.014,0.442-0.611,0.058-0.598
			c-0.302,0.011-0.769,0.167-1.05,0.08C201.473,18.291,201.264,18.854,201.632,18.967L201.632,18.967z"/>
		<path fill="none" d="M203.195,17.541c0.125,0,0.25,0,0.354-0.021c0.104,0,0.188-0.021,0.271,0"/>
		<path d="M203.167,17.838c0.208-0.003,0.417-0.032,0.625-0.021c0.386,0.022,0.442-0.574,0.058-0.599
			c-0.211-0.013-0.414,0.019-0.625,0.021C202.84,17.247,202.781,17.844,203.167,17.838L203.167,17.838z"/>
		<path fill="none" d="M204.07,16.687c0.021,0.062,0.104,0.042,0.166,0.042c0.125-0.021,0.229-0.042,0.375-0.042"/>
		<path d="M203.898,16.932c0.242,0.159,0.49,0.062,0.765,0.05c0.386-0.019,0.276-0.608-0.104-0.591
			c-0.021,0.001-0.314,0.051-0.316,0.05C203.919,16.229,203.574,16.718,203.898,16.932L203.898,16.932z"/>
		<path fill="none" d="M206.277,15.749c0.146,0,0.271-0.021,0.396-0.021c0.084,0,0.146,0.021,0.229,0.021
			c0.062,0,0.146-0.021,0.209-0.021"/>
		<path d="M206.25,16.047c0.307-0.012,0.609,0.006,0.913-0.023c0.386-0.039,0.278-0.629-0.104-0.591
			c-0.246,0.024-0.504,0.008-0.752,0.018C205.925,15.464,205.865,16.063,206.25,16.047L206.25,16.047z"/>
		<path fill="none" d="M208.008,13.395c0.083,0.042,0.229,0,0.291-0.021c0.104,0,0.209-0.021,0.292-0.021
			c0.188,0,0.375,0.021,0.542,0.021"/>
		<path d="M207.979,13.693c0.349,0.062,0.766-0.032,1.125-0.021c0.387,0.013,0.443-0.585,0.058-0.598
			c-0.206-0.006-0.417-0.033-0.622-0.018c-0.157,0.012-0.35,0.065-0.503,0.037C207.654,13.026,207.604,13.625,207.979,13.693
			L207.979,13.693z"/>
		<path fill="none" d="M213.008,10.395c0.104,0.042,0.312,0.021,0.416,0.021c0.062,0,0.146,0.021,0.209,0.021
			c0.041,0,0.083-0.021,0.146-0.021"/>
		<path d="M212.979,10.694c0.26,0.057,0.59,0.055,0.852,0.017c0.384-0.055,0.277-0.646-0.104-0.591
			c-0.205,0.029-0.488,0.021-0.69-0.024C212.658,10.013,212.607,10.612,212.979,10.694L212.979,10.694z"/>
		<path fill="none" d="M215.008,8.332c0.438,0.042,0.896,0.042,1.354,0.042"/>
		<path d="M214.979,8.63c0.451,0.037,0.902,0.042,1.354,0.042c0.384,0,0.442-0.597,0.058-0.598c-0.453,0-0.904-0.005-1.354-0.042
			C214.65,8,214.594,8.599,214.979,8.63L214.979,8.63z"/>
		<path fill="none" d="M216.383,7.416c0.146,0.042,0.312,0.042,0.458,0.042c0.146,0.021,0.312,0.042,0.479,0.042"/>
		<path d="M216.354,7.713c0.304,0.06,0.629,0.072,0.938,0.083c0.386,0.015,0.442-0.583,0.058-0.598
			c-0.31-0.011-0.636-0.025-0.938-0.083C216.029,7.042,215.979,7.642,216.354,7.713L216.354,7.713z"/>
		<path fill="none" d="M217.167,2.812c-0.25,0.333-0.5,1.039-0.5,1.455l0,0l-0.021,0.021"/>
		<path d="M216.921,2.64c-0.163,0.236-0.28,0.494-0.379,0.764c-0.049,0.131-0.081,0.267-0.112,0.402
			c-0.021,0.09-0.15,0.421,0.021,0.252c-0.274,0.269,0.111,0.729,0.389,0.458c0.172-0.168,0.131-0.412,0.184-0.635
			c0.074-0.315,0.205-0.631,0.391-0.898C217.632,2.665,217.141,2.32,216.921,2.64L216.921,2.64z"/>
		<path fill="none" d="M219.675,1.895c-0.042,0.125-0.146,0.208-0.209,0.333c-0.041,0.104-0.083,0.229-0.104,0.354
			c-0.041,0.188-0.146,0.396-0.188,0.583"/>
		<path d="M219.395,1.791c-0.215,0.416-0.371,0.813-0.5,1.271c-0.104,0.371,0.457,0.581,0.562,0.208
			c0.128-0.451,0.287-0.857,0.5-1.271C220.134,1.655,219.568,1.452,219.395,1.791L219.395,1.791z"/>
		<path fill="none" d="M191.945,18.586c-0.016,0.062-0.031,0.25-0.031,0.359s0.016,0.219,0.031,0.328c0,0.062,0,0.141,0,0.203
			c0,0.078,0.016,0.141,0.016,0.203"/>
		<path d="M191.646,18.559c-0.062,0.387-0.014,0.785,0.019,1.174c0.032,0.386,0.622,0.277,0.592-0.104
			c-0.026-0.332-0.063-0.684-0.013-1.013C192.305,18.232,191.706,18.178,191.646,18.559L191.646,18.559z"/>
	</g>
</svg>
